<svg width="26" height="26" viewBox="0 0 26 26" fill="none" xmlns="http://www.w3.org/2000/svg">
<path fill-rule="evenodd" clip-rule="evenodd" d="M11.751 0.499756C5.53777 0.499756 0.500977 5.53655 0.500977 11.7498C0.500977 17.963 5.53777 22.9998 11.751 22.9998C14.4072 22.9998 16.8485 22.0792 18.7731 20.5396L23.3674 25.1337C23.8556 25.6218 24.6471 25.6218 25.1352 25.1336C25.6233 24.6454 25.6233 23.854 25.1351 23.3659L20.5409 18.7718C22.0804 16.8473 23.001 14.406 23.001 11.7498C23.001 5.53655 17.9642 0.499756 11.751 0.499756ZM3.00098 11.7498C3.00098 6.91726 6.91848 2.99976 11.751 2.99976C16.5835 2.99976 20.501 6.91726 20.501 11.7498C20.501 16.5822 16.5835 20.4998 11.751 20.4998C6.91848 20.4998 3.00098 16.5822 3.00098 11.7498Z" fill="#939393"/>
</svg>
