<?xml version="1.0" encoding="utf-8"?>
<!-- Generator: Adobe Illustrator 26.4.1, SVG Export Plug-In . SVG Version: 6.00 Build 0)  -->
<svg version="1.1" id="Layer_1" xmlns="http://www.w3.org/2000/svg" xmlns:xlink="http://www.w3.org/1999/xlink" x="0px" y="0px"
	 width="48px" height="48px" viewBox="0 0 48 48" enable-background="new 0 0 48 48" xml:space="preserve">
<path fill="#0D153D" d="M10,0h28c5.5,0,10,4.5,10,10v28c0,5.5-4.5,10-10,10H10C4.5,48,0,43.5,0,38V10C0,4.5,4.5,0,10,0z"/>
<g>
	<defs>
		<rect id="SVGID_1_" x="7.7" y="9.1" width="32.5" height="29.8"/>
	</defs>
	<clipPath id="SVGID_00000098187605530702392810000007778468709936934588_">
		<use xlink:href="#SVGID_1_"  overflow="visible"/>
	</clipPath>
	<g clip-path="url(#SVGID_00000098187605530702392810000007778468709936934588_)">
		<path fill="#FFFFFF" d="M40.3,28.5c0,2.2-0.9,4.3-2.4,5.8c-1.3,1.3-2.7,2.7-4,4c-0.8,0.8-2.1,0.8-2.9,0.1
			c-0.3-0.3-0.5-0.7-0.6-1.1c-0.1-0.6,0.1-1.3,0.5-1.8c1.3-1.3,2.7-2.6,4-4c1.2-1,1.6-2.7,1.1-4.2c-0.4-1.5-1.7-2.6-3.2-2.8
			c-1.3-0.2-2.6,0.2-3.5,1.2c-2.5,2.5-5,5.1-7.6,7.6c-2.1,2.2-5.3,3-8.2,2c-3-0.8-5.2-3.3-5.6-6.4c-0.6-2.6,0.3-5.4,2.2-7.3
			c2-2,4-4.1,6.1-6.1c0.8-0.8,2.1-0.9,2.9-0.1c0.1,0.1,0.3,0.3,0.4,0.4c0.2,0.4,0.3,0.9,0.3,1.3c-0.1,0.5-0.3,0.9-0.6,1.2l-6.1,6.1
			c-1.6,1.6-1.6,4.2,0,5.8c0,0,0,0,0,0c1.6,1.6,4.1,1.6,5.7,0c0,0,0,0,0,0l7.4-7.5c1.2-1.3,2.8-2.1,4.6-2.4c4.2-0.7,8.2,2,9.2,6.1
			c0.1,0.3,0.1,0.7,0.2,1.1C40.2,27.9,40.2,28.2,40.3,28.5z"/>
		<path fill="#EE3923" d="M23.5,9.1c0.8,0,1.6,0.5,1.9,1.3c0.2,0.4,0.2,0.8,0.1,1.2c-0.2,1.1-1.3,1.8-2.3,1.6
			c-0.2,0-0.3-0.1-0.4-0.1c-0.4-0.2-0.7-0.4-0.9-0.8c-0.6-0.9-0.4-2.1,0.5-2.8C22.6,9.2,23.1,9.1,23.5,9.1L23.5,9.1z"/>
	</g>
</g>
</svg>
