<svg width="230" height="15" viewBox="0 0 230 15" fill="none" xmlns="http://www.w3.org/2000/svg">
<path d="M15.9991 9.87139C15.9747 10.9993 15.6008 11.957 14.819 12.7418C14.1704 13.3928 13.5189 14.0409 12.8645 14.6862C12.5728 14.9745 12.2229 15.071 11.8307 14.947C11.4536 14.8277 11.2207 14.5608 11.1456 14.1713C11.0815 13.8376 11.1632 13.5313 11.4037 13.289C12.0517 12.637 12.7106 11.9965 13.3597 11.3446C13.9335 10.7672 14.1253 10.073 13.8811 9.29602C13.6387 8.52469 13.0923 8.05811 12.2949 7.92477C11.6171 7.81132 11.0313 8.02619 10.5469 8.51119C9.30411 9.75376 8.08045 11.0143 6.82106 12.2392C5.6828 13.3472 4.31086 13.6777 2.80459 13.2015C1.29833 12.7254 0.369019 11.6559 0.0766231 10.0939C-0.180049 8.72262 0.212667 7.51663 1.18651 6.52037C2.17135 5.51206 3.1726 4.52021 4.16895 3.52443C4.66785 3.02544 5.43176 3.10206 5.78385 3.68184C5.90078 3.87601 5.94918 4.10403 5.92126 4.32917C5.89335 4.55431 5.79073 4.76346 5.62995 4.92294C4.62691 5.9301 3.62363 6.93734 2.6201 7.94466C1.82268 8.7484 1.82072 10.0092 2.61105 10.7969C2.98451 11.1682 3.48917 11.3762 4.01485 11.3753C4.54053 11.3745 5.04453 11.165 5.41683 10.7925C6.63666 9.5686 7.85599 8.3442 9.07484 7.11931C9.70319 6.48549 10.4451 6.08473 11.3259 5.92683C13.3578 5.56265 15.419 6.91966 15.88 8.93774C15.9189 9.10964 15.949 9.28153 15.9717 9.45638C15.9893 9.60175 15.9913 9.74959 15.9991 9.87139Z" fill="#FEC20E"/>
<path d="M7.75621 0.356447C7.95422 0.357241 8.14753 0.417058 8.31161 0.528304C8.47569 0.639551 8.60314 0.797212 8.67778 0.981279C8.75242 1.16535 8.7709 1.36752 8.73086 1.56214C8.69081 1.75676 8.59406 1.93506 8.45288 2.0744C8.3117 2.21374 8.13246 2.30785 7.93789 2.34477C7.74333 2.3817 7.54222 2.35978 7.36009 2.2818C7.17796 2.20382 7.02302 2.07329 6.91494 1.90678C6.80685 1.74027 6.75049 1.54529 6.75301 1.34658C6.757 1.08233 6.8645 0.83029 7.05224 0.644988C7.23999 0.459686 7.49289 0.356029 7.75621 0.356447Z" fill="#FEC20E"/>
<path d="M22.5498 4.55568V4.55851C22.5498 5.70328 22.9537 6.67931 23.7613 7.48663C24.569 8.29394 25.546 8.69873 26.6923 8.701H33.0507C33.6076 8.701 34.1416 8.92221 34.5354 9.31596C34.9291 9.70972 35.1503 10.2438 35.1503 10.8006V10.8035C35.1503 11.3603 34.9291 11.8943 34.5354 12.2881C34.1416 12.6819 33.6076 12.9031 33.0507 12.9031H23.5741C23.3032 12.9031 23.0434 13.0107 22.8518 13.2022C22.6603 13.3938 22.5526 13.6536 22.5526 13.9245C22.5526 14.1954 22.6603 14.4552 22.8518 14.6468C23.0434 14.8383 23.3032 14.9459 23.5741 14.9459H33.0507C34.1955 14.9459 35.1715 14.5411 35.9788 13.7316C36.7861 12.922 37.1909 11.9459 37.1932 10.8035V10.8006C37.1932 9.65585 36.7884 8.67887 35.9788 7.86966C35.1692 7.06046 34.1932 6.65662 33.0507 6.65813H26.6951C26.1383 6.65813 25.6042 6.43692 25.2105 6.04317C24.8167 5.64941 24.5955 5.11537 24.5955 4.55851V4.55568C24.5945 4.27968 24.6482 4.00621 24.7534 3.75104C24.8585 3.49586 25.0131 3.26401 25.2083 3.06885C25.4035 2.87369 25.6353 2.71907 25.8905 2.6139C26.1457 2.50873 26.4191 2.45509 26.6951 2.45606H36.1718C36.4427 2.45606 36.7025 2.34845 36.894 2.15689C37.0856 1.96533 37.1932 1.70553 37.1932 1.43463C37.1932 1.16372 37.0856 0.903919 36.894 0.712363C36.7025 0.520807 36.4427 0.413192 36.1718 0.413192H26.6951C25.5489 0.413192 24.5709 0.817037 23.7613 1.62473C22.9518 2.43242 22.5479 3.4094 22.5498 4.55568ZM73.0483 0.662875C72.8161 0.746618 72.623 0.913389 72.5064 1.13103L66.0629 13.0478C65.9976 13.1657 65.9569 13.2957 65.9433 13.4298C65.9296 13.5639 65.9433 13.6994 65.9834 13.828C66.0203 13.957 66.0831 14.0772 66.168 14.1811C66.2529 14.285 66.3581 14.3705 66.4771 14.4324C66.715 14.5605 66.994 14.5892 67.253 14.5121C67.512 14.435 67.7298 14.2584 67.8589 14.021L73.403 3.76974L78.9358 14.021C78.9983 14.1398 79.0843 14.2446 79.1887 14.329C79.2932 14.4134 79.4137 14.4756 79.5429 14.5118C79.8014 14.5887 80.0798 14.5603 80.3174 14.4327C80.555 14.3052 80.7325 14.0888 80.8112 13.8309C80.8524 13.703 80.8669 13.5679 80.8537 13.4342C80.8406 13.3005 80.8 13.1709 80.7346 13.0534L74.3053 1.13387C74.1896 0.914847 73.9963 0.746886 73.7633 0.662875C73.5335 0.572661 73.2781 0.572661 73.0483 0.662875ZM58.073 1.52258C57.1934 0.750833 56.1294 0.36212 54.881 0.356445H54.8782C53.6298 0.36212 52.5639 0.750833 51.6805 1.52258C51.5466 1.63986 51.4218 1.75997 51.306 1.88292C51.1887 1.75619 51.0646 1.6359 50.9343 1.52258C50.0521 0.750833 48.9862 0.36212 47.7367 0.356445C46.4882 0.36212 45.4223 0.750833 44.539 1.52258C43.6174 2.32952 43.1531 3.30366 43.1459 4.44502V13.9784C43.1459 14.2493 43.2535 14.5091 43.4451 14.7007C43.6366 14.8922 43.8964 14.9998 44.1673 14.9998C44.4382 14.9998 44.698 14.8922 44.8896 14.7007C45.0811 14.5091 45.1887 14.2493 45.1887 13.9784V4.47339C45.2039 3.92409 45.4356 3.45309 45.8839 3.06041H45.8811C46.3903 2.61438 47.0069 2.39402 47.731 2.39931C48.4562 2.39364 49.0738 2.614 49.5837 3.06041C50.029 3.44969 50.2617 3.91596 50.2817 4.45921V13.9784C50.2817 14.2493 50.3893 14.5091 50.5809 14.7007C50.7725 14.8922 51.0323 14.9998 51.3032 14.9998C51.5741 14.9998 51.8339 14.8922 52.0254 14.7007C52.217 14.5091 52.3246 14.2493 52.3246 13.9784V4.45921C52.3439 3.91558 52.5756 3.44931 53.0197 3.06041C53.5327 2.61438 54.1513 2.39402 54.8753 2.39931H54.881C55.6062 2.39364 56.2238 2.614 56.7338 3.06041C57.1912 3.45877 57.4238 3.93828 57.4318 4.49893V13.9784C57.4318 14.2493 57.5394 14.5091 57.7309 14.7007C57.9225 14.8922 58.1823 14.9998 58.4532 14.9998C58.7241 14.9998 58.9839 14.8922 59.1755 14.7007C59.367 14.5091 59.4746 14.2493 59.4746 13.9784V4.49893C59.4826 3.33449 59.0163 2.34238 58.0758 1.52258M120.786 1.42895C120.786 1.15805 120.679 0.898244 120.487 0.706688C120.295 0.515132 120.036 0.407517 119.765 0.407517H107.417C107.146 0.407517 106.886 0.515132 106.694 0.706688C106.503 0.898244 106.395 1.15805 106.395 1.42895C106.395 1.69985 106.503 1.95966 106.694 2.15122C106.886 2.34277 107.146 2.45039 107.417 2.45039H112.566V13.95C112.566 14.2209 112.674 14.4807 112.866 14.6723C113.057 14.8639 113.317 14.9715 113.588 14.9715C113.859 14.9715 114.119 14.8639 114.31 14.6723C114.502 14.4807 114.609 14.2209 114.609 13.95V2.45039H119.762C120.032 2.4489 120.291 2.3408 120.483 2.14957C120.674 1.95833 120.782 1.69939 120.783 1.42895M86.7582 0.705435C86.662 0.799472 86.586 0.912125 86.5348 1.03652C86.4836 1.16091 86.4582 1.29444 86.4603 1.42895C86.4603 1.45846 86.4603 1.4857 86.4603 1.51691C86.4603 1.54812 86.4603 1.57365 86.4603 1.60487V13.9784C86.4603 14.2493 86.5679 14.5091 86.7595 14.7007C86.951 14.8922 87.2109 14.9998 87.4818 14.9998C87.7527 14.9998 88.0125 14.8922 88.204 14.7007C88.3956 14.5091 88.5032 14.2493 88.5032 13.9784V8.701H97.0265C97.5525 8.71702 98.0535 8.92954 98.4306 9.29666C98.8077 9.66378 99.0336 10.1589 99.0637 10.6843V13.9784C99.0637 14.2493 99.1713 14.5091 99.3628 14.7007C99.5544 14.8922 99.8142 14.9998 100.085 14.9998C100.356 14.9998 100.616 14.8922 100.807 14.7007C100.999 14.5091 101.107 14.2493 101.107 13.9784V10.7212C101.107 10.6939 101.107 10.6656 101.107 10.636V10.4318C101.107 10.3189 101.089 10.2067 101.053 10.0998C100.918 9.25125 100.531 8.50787 99.8922 7.86966C99.8252 7.8027 99.7562 7.73745 99.6851 7.67389C99.755 7.61336 99.8231 7.54905 99.8893 7.48095C100.674 6.69785 101.079 5.75586 101.104 4.65498C101.105 4.62474 101.105 4.59443 101.104 4.56419C101.105 4.53773 101.105 4.51121 101.104 4.48474C101.089 3.36911 100.684 2.41388 99.8893 1.61905C99.0816 0.81174 98.1056 0.407895 96.9612 0.407517H87.4846C87.3501 0.405424 87.2166 0.430761 87.0922 0.481982C86.9678 0.533204 86.8551 0.609234 86.7611 0.705435M88.506 6.65813V2.45039H96.9612C97.5117 2.4503 98.0403 2.66644 98.433 3.05225C98.8257 3.43806 99.0512 3.96268 99.0608 4.51312V4.56419C99.0608 4.57951 99.0608 4.59483 99.0608 4.60959C99.058 4.87641 99.0021 5.14 98.8964 5.38502C98.7906 5.63003 98.6373 5.85158 98.4451 6.03676C98.2594 6.22935 98.0375 6.38338 97.7921 6.49001C97.5467 6.59664 97.2827 6.65377 97.0151 6.65813H88.5032H88.506Z" fill="#FEC20E"/>
<path d="M137.751 6.73758C137.759 5.55953 138.244 4.55323 139.206 3.71868C140.228 2.83343 141.461 2.39365 142.906 2.39932H142.912C144.359 2.39365 145.592 2.83343 146.612 3.71868C147.573 4.5536 148.059 5.55991 148.067 6.73758V13.899C148.067 14.1699 148.175 14.4297 148.366 14.6212C148.558 14.8128 148.818 14.9204 149.089 14.9204C149.36 14.9204 149.619 14.8128 149.811 14.6212C150.003 14.4297 150.11 14.1699 150.11 13.899V6.73758C150.119 4.95348 149.4 3.43267 147.954 2.17517C146.564 0.968368 144.884 0.363074 142.915 0.359291H142.909C140.942 0.364965 139.262 0.97026 137.87 2.17517C136.422 3.43267 135.703 4.95348 135.714 6.73758V13.899C135.714 14.1699 135.821 14.4297 136.013 14.6212C136.204 14.8128 136.464 14.9204 136.735 14.9204C137.006 14.9204 137.266 14.8128 137.457 14.6212C137.649 14.4297 137.757 14.1699 137.757 13.899V6.73758M128.359 0.356453C128.225 0.355928 128.092 0.38199 127.968 0.433136C127.844 0.484281 127.731 0.5595 127.636 0.654454C127.541 0.749408 127.466 0.862218 127.415 0.986381C127.363 1.11054 127.337 1.2436 127.338 1.37789V6.14458C127.338 6.17409 127.338 6.20133 127.338 6.23254C127.338 6.26375 127.338 6.28929 127.338 6.3205V13.8961C127.338 14.167 127.446 14.4268 127.637 14.6184C127.829 14.81 128.088 14.9176 128.359 14.9176C128.63 14.9176 128.89 14.81 129.082 14.6184C129.273 14.4268 129.381 14.167 129.381 13.8961V6.32333C129.381 6.29382 129.381 6.26659 129.378 6.23538C129.375 6.20417 129.381 6.17863 129.381 6.14742V1.38073C129.381 1.10982 129.273 0.850018 129.082 0.658462C128.89 0.466906 128.63 0.359291 128.359 0.359291M169.821 1.27574C169.763 1.08274 169.649 0.911268 169.493 0.782912C169.338 0.654556 169.148 0.575058 168.948 0.55443C168.747 0.533802 168.545 0.572965 168.367 0.666988C168.188 0.761012 168.042 0.90569 167.946 1.08281L162.413 11.3312L156.869 1.07997C156.738 0.844904 156.52 0.670885 156.262 0.595688C156.003 0.520491 155.726 0.550186 155.489 0.678326C155.253 0.806466 155.076 1.02271 154.998 1.28011C154.92 1.53752 154.947 1.8153 155.073 2.05317L161.519 13.9642C161.635 14.1829 161.828 14.3507 162.061 14.4352C162.291 14.5254 162.546 14.5254 162.776 14.4352C163.009 14.3512 163.202 14.1833 163.318 13.9642L169.747 2.05033C169.813 1.93293 169.853 1.80332 169.866 1.66958C169.88 1.53584 169.865 1.40082 169.824 1.27291M197.317 3.01786C197.51 2.82025 197.741 2.66399 197.996 2.55862C198.251 2.45325 198.525 2.40098 198.801 2.405H217.247H220.989V13.9018C220.989 14.1727 221.097 14.4325 221.288 14.6241C221.48 14.8156 221.74 14.9232 222.011 14.9232C222.281 14.9232 222.541 14.8156 222.733 14.6241C222.924 14.4325 223.032 14.1727 223.032 13.9018V2.405H228.185C228.455 2.405 228.715 2.29738 228.907 2.10583C229.098 1.91427 229.206 1.65446 229.206 1.38356C229.206 1.11266 229.098 0.852856 228.907 0.661299C228.715 0.469743 228.455 0.362128 228.185 0.362128H222.096C222.068 0.362128 222.039 0.362128 222.011 0.362128C221.982 0.362128 221.954 0.362128 221.928 0.362128H217.244H198.801C197.657 0.362128 196.68 0.765973 195.87 1.57366C195.061 2.38135 194.657 3.35834 194.659 4.50461V4.50745C194.659 5.65221 195.063 6.62825 195.87 7.43556C196.678 8.24287 197.655 8.64766 198.801 8.64993H205.16C205.717 8.64993 206.251 8.87114 206.644 9.2649C207.038 9.65865 207.259 10.1927 207.259 10.7495V10.7524C207.259 11.3092 207.038 11.8433 206.644 12.237C206.251 12.6308 205.717 12.852 205.16 12.852H188.556C188.446 12.8137 188.331 12.7945 188.215 12.7953H181.051C179.873 12.7866 178.867 12.3014 178.032 11.3397C177.37 10.5829 176.938 9.65262 176.787 8.65845H188.212C188.483 8.65845 188.743 8.55083 188.935 8.35927C189.126 8.16772 189.234 7.90791 189.234 7.63701C189.234 7.36611 189.126 7.1063 188.935 6.91475C188.743 6.72319 188.483 6.61558 188.212 6.61558H176.787C176.938 5.62217 177.37 4.69276 178.032 3.93715C178.867 2.97549 179.873 2.49031 181.051 2.48161H188.212C188.483 2.48161 188.743 2.37399 188.935 2.18243C189.126 1.99088 189.234 1.73107 189.234 1.46017C189.234 1.18927 189.126 0.929463 188.935 0.737906C188.743 0.54635 188.483 0.438736 188.212 0.438736H181.051C179.267 0.430035 177.746 1.14882 176.489 2.5951C175.287 3.97933 174.681 5.65051 174.67 7.60864V7.66539C174.681 9.62162 175.287 11.2928 176.489 12.6789C177.746 14.1271 179.267 14.8468 181.051 14.8381H186.425C186.536 14.8766 186.653 14.8958 186.771 14.8949H205.16C206.304 14.8949 207.28 14.4901 208.088 13.6805C208.896 12.8709 209.3 11.8949 209.302 10.7524V10.7495C209.302 9.60479 208.897 8.6278 208.088 7.8186C207.278 7.0094 206.302 6.60555 205.16 6.60706H198.801C198.244 6.60706 197.71 6.38586 197.317 5.9921C196.923 5.59835 196.702 5.0643 196.702 4.50745V4.50461C196.697 4.22813 196.749 3.95366 196.855 3.69801C196.96 3.44236 197.117 3.21092 197.315 3.01786H197.317Z" fill="#FEC20E"/>
</svg>
