<svg width="59" height="54" viewBox="0 0 59 54" fill="none" xmlns="http://www.w3.org/2000/svg">
<g clip-path="url(#clip0_60_691)">
<path d="M59.0001 35.0877C58.9099 39.2471 57.5312 42.7789 54.6483 45.6731C52.2565 48.0735 49.8539 50.4637 47.4405 52.8435C46.365 53.9067 45.0746 54.2626 43.6282 53.8053C42.2377 53.3651 41.3787 52.3808 41.1017 50.9445C40.8653 49.7138 41.1667 48.5846 42.0537 47.6908C44.443 45.2864 46.873 42.9247 49.2668 40.5203C51.3828 38.3913 52.0902 35.8312 51.1897 32.9659C50.2955 30.1215 48.2806 28.4009 45.3399 27.9092C42.8405 27.4908 40.6803 28.2832 38.8937 30.0717C34.3109 34.654 29.7984 39.3023 25.1541 43.8194C20.9565 47.9054 15.8972 49.1243 10.3425 47.3684C4.78785 45.6124 1.36084 41.6686 0.282564 35.9082C-0.66397 30.8514 0.784254 26.4041 4.37549 22.7301C8.00733 19.0118 11.6996 15.3541 15.3739 11.682C17.2137 9.84185 20.0307 10.1244 21.3292 12.2625C21.7604 12.9785 21.9389 13.8194 21.8359 14.6496C21.733 15.4799 21.3545 16.2512 20.7616 16.8393C17.0627 20.5534 13.3629 24.2678 9.66218 27.9825C6.72152 30.9465 6.7143 35.5958 9.62879 38.5009C11.006 39.8701 12.867 40.6369 14.8056 40.6338C16.7442 40.6308 18.6028 39.8581 19.9757 38.4846C24.4741 33.9711 28.9706 29.4559 33.4654 24.9388C35.7825 22.6015 38.5184 21.1236 41.7667 20.5413C49.2596 19.1983 56.8607 24.2026 58.5607 31.6447C58.7042 32.2786 58.8152 32.9125 58.8991 33.5573C58.964 34.0934 58.9713 34.6386 59.0001 35.0877Z" fill="#0D153D"/>
<path d="M28.6041 4.63535e-06C29.3343 0.00293508 30.0472 0.223521 30.6523 0.633766C31.2573 1.04401 31.7273 1.62542 32.0026 2.30421C32.2779 2.98299 32.346 3.72855 32.1983 4.44626C32.0507 5.16397 31.6939 5.82147 31.1732 6.33533C30.6526 6.84918 29.9916 7.19621 29.2741 7.33238C28.5566 7.46855 27.815 7.38773 27.1433 7.10015C26.4717 6.81258 25.9003 6.33123 25.5017 5.71719C25.1031 5.10315 24.8953 4.38411 24.9046 3.65132C24.9193 2.67686 25.3157 1.7474 26.0081 1.06406C26.7004 0.380722 27.6331 -0.0015354 28.6041 4.63535e-06Z" fill="#EE3923"/>
</g>
<defs>
<clipPath id="clip0_60_691">
<rect width="59" height="54" fill="white"/>
</clipPath>
</defs>
</svg>
