<svg width="1920" height="1000" viewBox="0 0 1920 1000" fill="none" xmlns="http://www.w3.org/2000/svg">
<g clip-path="url(#clip0_270_553)">
<rect width="1920" height="1000" fill="url(#paint0_linear_270_553)"/>
<path fill-rule="evenodd" clip-rule="evenodd" d="M1638.95 1622.55C1554.54 1574.57 1420.13 1651.2 1338.78 1598.25C1251.7 1541.56 1131.18 1446.53 1175.26 1320.71C1229.54 1165.79 1436.33 1141.22 1543.32 1014.45C1600.32 946.91 1586.81 844.436 1638.32 772.011C1692.18 696.3 1763.5 630.466 1840.56 596.578C1916.81 563.042 1988.2 610.874 2065.22 584.263C2184.24 543.141 2304.09 364.629 2408.27 400.429C2502.92 432.957 2475.95 606.554 2474.49 724.908C2473.31 820.83 2383.01 927.093 2400.71 1016.07C2425.59 1141.19 2589.19 1172.56 2590.2 1306.73C2591.1 1426.19 2500.1 1561.65 2405.47 1647.74C2311.2 1733.5 2191.73 1730.97 2082.42 1768.69C1985.86 1802.01 1880.84 1886.09 1795.85 1858.08C1707.24 1828.88 1719.11 1668.13 1638.95 1622.55Z" fill="white" fill-opacity="0.1"/>
<path fill-rule="evenodd" clip-rule="evenodd" d="M-755.859 261.498C-789.392 170.375 -941.525 142.209 -969.511 49.271C-999.472 -50.2271 -1030.25 -200.587 -915.386 -268.28C-773.965 -351.625 -600.116 -236.974 -436.587 -264.807C-349.458 -279.636 -293.668 -366.648 -207.581 -388.745C-117.588 -411.845 -20.6193 -416.128 60.1183 -392.305C140.013 -368.731 163.698 -286.126 239.714 -256.766C357.179 -211.396 563.921 -270.46 620.417 -175.895C671.75 -89.9739 539.138 25.2549 461.668 114.744C398.881 187.271 261.328 210.199 217.44 289.599C155.729 401.244 260.485 530.758 174.69 633.928C98.3077 725.778 -58.6118 770.564 -186.454 775.286C-313.818 779.99 -403.464 700.975 -511.312 659.268C-606.586 622.424 -741.072 618.909 -787.935 542.683C-836.801 463.201 -724.012 348.037 -755.859 261.498Z" fill="white" fill-opacity="0.1"/>
</g>
<defs>
<linearGradient id="paint0_linear_270_553" x1="-471.5" y1="1330.03" x2="711.495" y2="-833.444" gradientUnits="userSpaceOnUse">
<stop stop-color="#0D153D"/>
<stop offset="1" stop-color="#3F6695"/>
</linearGradient>
<clipPath id="clip0_270_553">
<rect width="1920" height="1000" fill="white"/>
</clipPath>
</defs>
</svg>
