<svg width="163" height="47" viewBox="0 0 163 47" fill="none" xmlns="http://www.w3.org/2000/svg">
<path d="M161.178 41.4229C161.178 43.9182 159.115 45.9394 156.563 45.9394H5.52182C2.97094 45.9394 0.900391 43.9182 0.900391 41.4229V5.40587C0.900391 2.91181 2.97094 0.883545 5.52182 0.883545H156.561C159.115 0.883545 161.177 2.91181 161.177 5.40587L161.178 41.4229Z" fill="#141414"/>
<path d="M156.076 0.937977C158.855 0.937977 161.117 3.14304 161.117 5.8529V40.9699C161.117 43.6798 158.855 45.8848 156.076 45.8848H6.00291C3.22356 45.8848 0.961966 43.6798 0.961966 40.9699V5.8529C0.961966 3.14304 3.22356 0.937977 6.00291 0.937977H156.076ZM156.076 6.10352e-05H6.00291C2.70281 6.10352e-05 0 2.6353 0 5.8529V40.9699C0 44.1875 2.70281 46.8228 6.00291 46.8228H156.076C159.376 46.8228 162.079 44.1875 162.079 40.9699V5.8529C162.079 2.6353 159.376 6.10352e-05 156.076 6.10352e-05Z" fill="#A6A6A6"/>
<path d="M36.1708 23.1584C36.136 19.3857 39.3392 17.5502 39.4856 17.4648C37.6716 14.886 34.8598 14.5337 33.8717 14.5056C31.5102 14.2633 29.2195 15.8834 28.0165 15.8834C26.7895 15.8834 24.937 14.529 22.9404 14.5688C20.3712 14.6074 17.9676 16.0578 16.6494 18.3099C13.9288 22.9021 15.9578 29.6504 18.5643 33.3623C19.8681 35.1802 21.3917 37.2099 23.3858 37.1385C25.3368 37.0601 26.0655 35.9258 28.4199 35.9258C30.7526 35.9258 31.4369 37.1385 33.4707 37.0929C35.5645 37.0601 36.8828 35.2668 38.141 33.4325C39.6477 31.3489 40.2528 29.2969 40.2768 29.1915C40.2276 29.1751 36.2104 27.6803 36.1708 23.1584Z" fill="white"/>
<path d="M32.329 12.0638C33.3783 10.7844 34.0962 9.04373 33.8969 7.27734C32.3782 7.3429 30.4789 8.30159 29.3851 9.55293C28.4175 10.6556 27.553 12.463 27.7764 14.1626C29.4824 14.2867 31.234 13.3233 32.329 12.0638Z" fill="white"/>
<path d="M58.8885 11.7162C58.8885 13.0939 58.4647 14.1311 57.6182 14.8275C56.8343 15.4702 55.7201 15.7921 54.277 15.7921C53.5615 15.7921 52.9492 15.7617 52.4365 15.7008V8.17287C53.1052 8.06752 53.8256 8.01367 54.6036 8.01367C55.9782 8.01367 57.0143 8.30514 57.7131 8.88809C58.4959 9.54712 58.8885 10.4894 58.8885 11.7162ZM57.5618 11.7501C57.5618 10.857 57.3193 10.1722 56.8343 9.69461C56.3492 9.21819 55.6409 8.97939 54.708 8.97939C54.3118 8.97939 53.9745 9.00514 53.6947 9.05899V14.7819C53.8496 14.8053 54.1329 14.8158 54.5447 14.8158C55.5076 14.8158 56.2508 14.5548 56.7742 14.0327C57.2977 13.5107 57.5618 12.7498 57.5618 11.7501Z" fill="white"/>
<path d="M65.923 12.9195C65.923 13.7682 65.6745 14.4635 65.1774 15.009C64.6564 15.5697 63.966 15.8494 63.104 15.8494C62.2732 15.8494 61.6117 15.5814 61.1182 15.0429C60.626 14.5056 60.3799 13.8279 60.3799 13.0108C60.3799 12.1563 60.6332 11.4551 61.1423 10.9108C61.6513 10.3665 62.3356 10.0938 63.1977 10.0938C64.0285 10.0938 64.696 10.3618 65.2014 10.8991C65.6817 11.4212 65.923 12.0954 65.923 12.9195ZM64.6179 12.9593C64.6179 12.4501 64.5051 12.0135 64.2806 11.6494C64.0164 11.2093 63.6407 10.9892 63.152 10.9892C62.6466 10.9892 62.2624 11.2093 61.9983 11.6494C61.7726 12.0135 61.6609 12.4571 61.6609 12.9815C61.6609 13.4907 61.7738 13.9274 61.9983 14.2914C62.2708 14.7315 62.6502 14.9516 63.14 14.9516C63.6203 14.9516 63.9972 14.728 64.2686 14.2797C64.5015 13.9086 64.6179 13.4685 64.6179 12.9593Z" fill="white"/>
<path d="M75.3543 10.2061L73.5834 15.7241H72.4309L71.6973 13.328C71.5112 12.7298 71.3599 12.1351 71.2423 11.5452H71.2195C71.1102 12.1515 70.9589 12.745 70.7644 13.328L69.9853 15.7241H68.8195L67.1543 10.2061H68.4473L69.0872 12.8293C69.2421 13.4497 69.3694 14.0408 69.4714 14.6004H69.4942C69.5879 14.1392 69.7427 13.5515 69.9613 12.841L70.7644 10.2072H71.7897L72.5593 12.7848C72.7454 13.4134 72.8967 14.0186 73.0131 14.6015H73.048C73.1332 14.0338 73.2617 13.4286 73.4321 12.7848L74.1189 10.2072H75.3543V10.2061Z" fill="white"/>
<path d="M81.8768 15.7243H80.6186V12.5637C80.6186 11.5898 80.2392 11.1029 79.478 11.1029C79.1047 11.1029 78.8033 11.2363 78.5692 11.5044C78.3375 11.7724 78.2198 12.0885 78.2198 12.4502V15.7231H76.9616V11.783C76.9616 11.2984 76.946 10.7728 76.916 10.2039H78.0217L78.0806 11.0666H78.1154C78.2619 10.7985 78.4804 10.5773 78.7673 10.4005C79.1083 10.1945 79.4901 10.0903 79.9079 10.0903C80.4361 10.0903 80.8755 10.2566 81.2249 10.5902C81.6595 10.9987 81.8768 11.6086 81.8768 12.4186V15.7243Z" fill="white"/>
<path d="M85.3468 15.7243H84.0898V7.67432H85.3468V15.7243Z" fill="white"/>
<path d="M92.755 12.9195C92.755 13.7682 92.5065 14.4635 92.0094 15.009C91.4884 15.5697 90.7969 15.8494 89.936 15.8494C89.104 15.8494 88.4425 15.5814 87.9503 15.0429C87.458 14.5056 87.2119 13.8279 87.2119 13.0108C87.2119 12.1563 87.4652 11.4551 87.9743 10.9108C88.4833 10.3665 89.1677 10.0938 90.0285 10.0938C90.8605 10.0938 91.5268 10.3618 92.0335 10.8991C92.5137 11.4212 92.755 12.0954 92.755 12.9195ZM91.4488 12.9593C91.4488 12.4501 91.3359 12.0135 91.1114 11.6494C90.8485 11.2093 90.4715 10.9892 89.9841 10.9892C89.4774 10.9892 89.0932 11.2093 88.8303 11.6494C88.6046 12.0135 88.4929 12.4571 88.4929 12.9815C88.4929 13.4907 88.6058 13.9274 88.8303 14.2914C89.1028 14.7315 89.4822 14.9516 89.9721 14.9516C90.4523 14.9516 90.8281 14.728 91.0994 14.2797C91.3335 13.9086 91.4488 13.4685 91.4488 12.9593Z" fill="white"/>
<path d="M98.8435 15.7242H97.7138L97.6201 15.0886H97.5853C97.1987 15.5954 96.6476 15.8494 95.9321 15.8494C95.3978 15.8494 94.9656 15.682 94.6403 15.3496C94.3449 15.0476 94.1973 14.6718 94.1973 14.2259C94.1973 13.5516 94.4854 13.0377 95.0653 12.6819C95.644 12.326 96.458 12.1516 97.5061 12.1598V12.0568C97.5061 11.3299 97.1147 10.967 96.3307 10.967C95.7724 10.967 95.2802 11.1039 94.8552 11.3755L94.5995 10.5702C95.1253 10.2529 95.7748 10.0938 96.5408 10.0938C98.0199 10.0938 98.7619 10.8546 98.7619 12.3764V14.4085C98.7619 14.9598 98.7895 15.3988 98.8435 15.7242ZM97.5373 13.8279V12.9769C96.1494 12.9534 95.4555 13.3245 95.4555 14.0889C95.4555 14.3769 95.5347 14.5922 95.6968 14.7362C95.8589 14.8802 96.0654 14.9516 96.3115 14.9516C96.5876 14.9516 96.8457 14.8662 97.0811 14.6964C97.3176 14.5255 97.4628 14.309 97.5169 14.0432C97.5301 13.9835 97.5373 13.911 97.5373 13.8279Z" fill="white"/>
<path d="M105.993 15.7243H104.877L104.818 14.8382H104.783C104.427 15.5124 103.819 15.8496 102.966 15.8496C102.284 15.8496 101.716 15.5885 101.266 15.0664C100.815 14.5444 100.591 13.8666 100.591 13.0343C100.591 12.1412 100.835 11.4178 101.324 10.8653C101.799 10.3502 102.38 10.0927 103.071 10.0927C103.831 10.0927 104.363 10.342 104.666 10.8419H104.69V7.67432H105.949V14.2377C105.949 14.775 105.963 15.2701 105.993 15.7243ZM104.69 13.3972V12.4772C104.69 12.318 104.678 12.1892 104.655 12.0909C104.584 11.7959 104.431 11.5477 104.2 11.3476C103.966 11.1474 103.684 11.0467 103.358 11.0467C102.889 11.0467 102.521 11.2282 102.251 11.5922C101.983 11.9563 101.848 12.421 101.848 12.9887C101.848 13.5342 101.976 13.9767 102.234 14.3173C102.507 14.6802 102.874 14.8616 103.334 14.8616C103.747 14.8616 104.077 14.7106 104.328 14.4074C104.571 14.1277 104.69 13.7905 104.69 13.3972Z" fill="white"/>
<path d="M116.754 12.9195C116.754 13.7682 116.505 14.4635 116.008 15.009C115.487 15.5697 114.798 15.8494 113.935 15.8494C113.105 15.8494 112.444 15.5814 111.949 15.0429C111.457 14.5056 111.211 13.8279 111.211 13.0108C111.211 12.1563 111.464 11.4551 111.973 10.9108C112.482 10.3665 113.167 10.0938 114.03 10.0938C114.859 10.0938 115.528 10.3618 116.032 10.8991C116.513 11.4212 116.754 12.0954 116.754 12.9195ZM115.45 12.9593C115.45 12.4501 115.337 12.0135 115.113 11.6494C114.847 11.2093 114.473 10.9892 113.983 10.9892C113.479 10.9892 113.095 11.2093 112.829 11.6494C112.604 12.0135 112.492 12.4571 112.492 12.9815C112.492 13.4907 112.605 13.9274 112.829 14.2914C113.102 14.7315 113.481 14.9516 113.971 14.9516C114.451 14.9516 114.829 14.728 115.101 14.2797C115.333 13.9086 115.45 13.4685 115.45 12.9593Z" fill="white"/>
<path d="M123.519 15.7243H122.262V12.5637C122.262 11.5898 121.883 11.1029 121.12 11.1029C120.747 11.1029 120.446 11.2363 120.213 11.5044C119.98 11.7724 119.863 12.0885 119.863 12.4502V15.7231H118.604V11.783C118.604 11.2984 118.59 10.7728 118.56 10.2039H119.664L119.723 11.0666H119.758C119.905 10.7985 120.124 10.5773 120.41 10.4005C120.752 10.1945 121.132 10.0903 121.551 10.0903C122.078 10.0903 122.518 10.2566 122.867 10.5902C123.303 10.9987 123.519 11.6086 123.519 12.4186V15.7243Z" fill="white"/>
<path d="M131.987 11.1249H130.601V13.8055C130.601 14.4868 130.848 14.8274 131.335 14.8274C131.561 14.8274 131.748 14.8087 131.896 14.7701L131.928 15.7007C131.68 15.792 131.353 15.8376 130.951 15.8376C130.454 15.8376 130.067 15.6901 129.787 15.3952C129.506 15.1002 129.367 14.6039 129.367 13.9074V11.1249H128.54V10.206H129.367V9.19466L130.6 8.83179V10.2049H131.986V11.1249H131.987Z" fill="white"/>
<path d="M138.649 15.7243H137.389V12.5872C137.389 11.5981 137.01 11.1029 136.25 11.1029C135.666 11.1029 135.268 11.3897 135.049 11.9633C135.012 12.0838 134.99 12.2313 134.99 12.4046V15.7231H133.733V7.67432H134.99V10.9999H135.014C135.411 10.3947 135.979 10.0927 136.714 10.0927C137.236 10.0927 137.667 10.2589 138.009 10.5925C138.435 11.0081 138.649 11.6262 138.649 12.4432V15.7243Z" fill="white"/>
<path d="M145.519 12.7042C145.519 12.9242 145.502 13.1092 145.472 13.2602H141.699C141.716 13.8057 141.896 14.2212 142.245 14.5092C142.564 14.7667 142.976 14.8955 143.48 14.8955C144.039 14.8955 144.548 14.8088 145.006 14.6344L145.203 15.4866C144.667 15.7137 144.035 15.8272 143.304 15.8272C142.427 15.8272 141.737 15.5756 141.238 15.0722C140.736 14.5689 140.487 13.8934 140.487 13.046C140.487 12.2137 140.719 11.5207 141.186 10.9682C141.673 10.3782 142.333 10.0833 143.165 10.0833C143.979 10.0833 144.597 10.3782 145.015 10.9682C145.352 11.4364 145.519 12.0159 145.519 12.7042ZM144.318 12.3869C144.328 12.0229 144.245 11.7092 144.075 11.4446C143.856 11.104 143.524 10.9331 143.073 10.9331C142.663 10.9331 142.328 11.0993 142.072 11.4329C141.863 11.6986 141.74 12.0159 141.699 12.3869H144.318Z" fill="white"/>
<path d="M64.4046 36.8777H61.678L60.1845 32.302H54.9932L53.5705 36.8777H50.916L56.0593 21.2998H59.236L64.4046 36.8777ZM59.7343 30.3822L58.3836 26.3145C58.2408 25.899 57.973 24.9204 57.578 23.3799H57.53C57.3727 24.0424 57.1194 25.021 56.7713 26.3145L55.4446 30.3822H59.7343Z" fill="white"/>
<path d="M77.6317 31.1232C77.6317 33.0335 77.1022 34.5436 76.0433 35.6521C75.0949 36.6389 73.9171 37.1317 72.5112 37.1317C70.9937 37.1317 69.9035 36.6002 69.2396 35.5374H69.1916V41.4546H66.632V29.3427C66.632 28.1417 66.5995 26.9091 66.5371 25.6449H68.7882L68.9311 27.4253H68.9791C69.8327 26.0839 71.1281 25.4143 72.8666 25.4143C74.2256 25.4143 75.3602 25.9375 76.2678 26.9852C77.1779 28.034 77.6317 29.413 77.6317 31.1232ZM75.024 31.2145C75.024 30.1212 74.7719 29.2198 74.2653 28.5105C73.7118 27.7707 72.9686 27.4008 72.037 27.4008C71.4055 27.4008 70.8316 27.6068 70.3189 28.013C69.8051 28.4227 69.4689 28.9576 69.3116 29.6202C69.2324 29.9292 69.1928 30.182 69.1928 30.381V32.2539C69.1928 33.071 69.4497 33.7605 69.9636 34.3235C70.4774 34.8865 71.1449 35.1675 71.9661 35.1675C72.9302 35.1675 73.6806 34.8046 74.2172 34.0812C74.7551 33.3566 75.024 32.4014 75.024 31.2145Z" fill="white"/>
<path d="M90.8824 31.1232C90.8824 33.0335 90.353 34.5436 89.2929 35.6521C88.3456 36.6389 87.1678 37.1317 85.762 37.1317C84.2444 37.1317 83.1543 36.6002 82.4916 35.5374H82.4435V41.4546H79.8839V29.3427C79.8839 28.1417 79.8515 26.9091 79.7891 25.6449H82.0402L82.183 27.4253H82.231C83.0835 26.0839 84.3789 25.4143 86.1185 25.4143C87.4764 25.4143 88.6109 25.9375 89.521 26.9852C90.4274 28.034 90.8824 29.413 90.8824 31.1232ZM88.2748 31.2145C88.2748 30.1212 88.0215 29.2198 87.5148 28.5105C86.9613 27.7707 86.2206 27.4008 85.2877 27.4008C84.655 27.4008 84.0823 27.6068 83.5685 28.013C83.0546 28.4227 82.7197 28.9576 82.5624 29.6202C82.4844 29.9292 82.4435 30.182 82.4435 30.381V32.2539C82.4435 33.071 82.7005 33.7605 83.2119 34.3235C83.7258 34.8854 84.3933 35.1675 85.2169 35.1675C86.181 35.1675 86.9313 34.8046 87.468 34.0812C88.0059 33.3566 88.2748 32.4014 88.2748 31.2145Z" fill="white"/>
<path d="M105.697 32.5091C105.697 33.8342 105.225 34.9123 104.278 35.7446C103.237 36.6541 101.788 37.1083 99.926 37.1083C98.2067 37.1083 96.8285 36.7852 95.7852 36.1379L96.3782 34.0578C97.502 34.7204 98.735 35.0528 100.078 35.0528C101.043 35.0528 101.793 34.8397 102.332 34.416C102.869 33.9923 103.136 33.4234 103.136 32.714C103.136 32.0819 102.915 31.5493 102.472 31.1173C102.032 30.6854 101.296 30.2839 100.268 29.9128C97.4708 28.8956 96.0733 27.4055 96.0733 25.4459C96.0733 24.1653 96.5631 23.1153 97.544 22.2983C98.5213 21.4801 99.8251 21.0715 101.456 21.0715C102.909 21.0715 104.117 21.3185 105.081 21.8113L104.441 23.8458C103.541 23.3682 102.523 23.1294 101.383 23.1294C100.483 23.1294 99.7795 23.3459 99.2753 23.7767C98.849 24.1618 98.6353 24.6312 98.6353 25.1872C98.6353 25.803 98.8791 26.3122 99.3689 26.7125C99.7951 27.0824 100.569 27.4827 101.693 27.9147C103.068 28.4543 104.078 29.0852 104.727 29.8087C105.374 30.5297 105.697 31.4322 105.697 32.5091Z" fill="white"/>
<path d="M114.161 27.5177H111.339V32.9714C111.339 34.3585 111.836 35.0515 112.833 35.0515C113.29 35.0515 113.67 35.0128 113.97 34.9356L114.041 36.8307C113.536 37.0145 112.873 37.107 112.05 37.107C111.039 37.107 110.249 36.8061 109.679 36.2056C109.111 35.604 108.825 34.5949 108.825 33.1774V27.5153H107.145V25.6424H108.825V23.5857L111.339 22.8459V25.6424H114.161V27.5177Z" fill="white"/>
<path d="M126.89 31.1689C126.89 32.8955 126.383 34.313 125.372 35.4215C124.312 36.5628 122.905 37.1317 121.151 37.1317C119.461 37.1317 118.115 36.5851 117.111 35.4918C116.107 34.3985 115.605 33.0184 115.605 31.355C115.605 29.6144 116.122 28.1886 117.158 27.0801C118.192 25.9704 119.587 25.4155 121.341 25.4155C123.031 25.4155 124.391 25.9622 125.418 27.0567C126.4 28.1184 126.89 29.4891 126.89 31.1689ZM124.234 31.2496C124.234 30.2137 124.007 29.3252 123.547 28.5843C123.011 27.6876 122.243 27.2404 121.249 27.2404C120.22 27.2404 119.439 27.6888 118.902 28.5843C118.442 29.3264 118.216 30.2289 118.216 31.2965C118.216 32.3324 118.442 33.2209 118.902 33.9607C119.456 34.8573 120.229 35.3045 121.227 35.3045C122.204 35.3045 122.971 34.848 123.525 33.9373C123.996 33.1822 124.234 32.2844 124.234 31.2496Z" fill="white"/>
<path d="M135.21 27.8397C134.956 27.7941 134.686 27.7707 134.403 27.7707C133.502 27.7707 132.806 28.1019 132.316 28.7656C131.89 29.3509 131.676 30.0907 131.676 30.9839V36.8777H129.118L129.142 29.1824C129.142 27.8877 129.11 26.709 129.046 25.6461H131.275L131.369 27.7952H131.44C131.71 27.0566 132.136 26.462 132.72 26.016C133.29 25.6145 133.906 25.4143 134.57 25.4143C134.806 25.4143 135.02 25.4307 135.21 25.46V27.8397Z" fill="white"/>
<path d="M146.657 30.7299C146.657 31.1771 146.627 31.554 146.564 31.8619H138.885C138.915 32.9716 139.286 33.8202 139.999 34.4055C140.646 34.9288 141.483 35.191 142.511 35.191C143.648 35.191 144.685 35.0142 145.618 34.6595L146.019 36.392C144.929 36.8555 143.642 37.0861 142.157 37.0861C140.37 37.0861 138.968 36.5734 137.947 35.5492C136.929 34.5249 136.419 33.1495 136.419 31.4241C136.419 29.7303 136.893 28.3197 137.843 27.1948C138.837 25.9938 140.18 25.3933 141.871 25.3933C143.531 25.3933 144.788 25.9938 145.642 27.1948C146.318 28.1488 146.657 29.3288 146.657 30.7299ZM144.217 30.0826C144.234 29.3428 144.067 28.7037 143.72 28.164C143.277 27.4699 142.596 27.1234 141.68 27.1234C140.843 27.1234 140.162 27.4617 139.643 28.1406C139.216 28.6803 138.963 29.3276 138.885 30.0814H144.217V30.0826Z" fill="white"/>
</svg>
