<svg width="163" height="47" viewBox="0 0 163 47" fill="none" xmlns="http://www.w3.org/2000/svg">
<path d="M156.154 46.8228H6.08104C2.78094 46.8228 0.078125 44.1875 0.078125 40.9699V5.8529C0.078125 2.6353 2.78094 5.81741e-05 6.08104 5.81741e-05H156.154C159.454 5.81741e-05 162.157 2.6353 162.157 5.8529V40.9699C162.157 44.1875 159.454 46.8228 156.154 46.8228Z" fill="#141414"/>
<path d="M156.154 0.937973C158.933 0.937973 161.195 3.14303 161.195 5.8529V40.9699C161.195 43.6798 158.933 45.8848 156.154 45.8848H6.08104C3.30169 45.8848 1.04009 43.6798 1.04009 40.9699V5.8529C1.04009 3.14303 3.30169 0.937973 6.08104 0.937973H156.154ZM156.154 5.81741e-05H6.08104C2.78094 5.81741e-05 0.078125 2.6353 0.078125 5.8529V40.9699C0.078125 44.1875 2.78094 46.8228 6.08104 46.8228H156.154C159.454 46.8228 162.157 44.1875 162.157 40.9699V5.8529C162.157 2.6353 159.454 5.81741e-05 156.154 5.81741e-05Z" fill="#A6A6A6"/>
<path d="M12.6066 8.82467C12.2539 9.18462 12.0498 9.74503 12.0498 10.4708V36.3579C12.0498 37.0836 12.2539 37.644 12.6066 38.004L12.6936 38.083L27.5718 23.5826V23.2402L12.6936 8.73981L12.6066 8.82467Z" fill="url(#paint0_linear_80_1424)"/>
<path d="M32.5262 28.4185L27.5723 23.5826V23.2402L32.5322 18.4043L32.6432 18.4672L38.5171 21.7257C40.1934 22.6505 40.1934 24.1722 38.5171 25.1028L32.6432 28.3555L32.5262 28.4185Z" fill="url(#paint1_linear_80_1424)"/>
<path d="M32.6427 28.3557L27.5717 23.4115L12.6064 38.0041C13.1632 38.5747 14.0712 38.6435 15.1037 38.0729L32.6427 28.3557Z" fill="url(#paint2_linear_80_1424)"/>
<path d="M32.6427 18.4674L15.1037 8.75027C14.0712 8.18547 13.1632 8.25424 12.6064 8.82489L27.5717 23.4116L32.6427 18.4674Z" fill="url(#paint3_linear_80_1424)"/>
<path d="M57.0071 11.9914C57.0071 12.9689 56.707 13.7517 56.1157 14.3355C55.4359 15.0276 54.5504 15.3758 53.4654 15.3758C52.4284 15.3758 51.543 15.0217 50.8166 14.3238C50.0888 13.6156 49.7256 12.7464 49.7256 11.7061C49.7256 10.6658 50.0888 9.79662 50.8166 9.09428C51.543 8.39047 52.4284 8.03638 53.4654 8.03638C53.9817 8.03638 54.4739 8.14026 54.9436 8.33341C55.4118 8.52802 55.793 8.79139 56.0692 9.11623L55.4419 9.7337C54.9601 9.17914 54.3043 8.90552 53.4654 8.90552C52.709 8.90552 52.0532 9.16305 51.4964 9.68249C50.9457 10.2034 50.6695 10.8779 50.6695 11.7061C50.6695 12.5343 50.9457 13.2147 51.4964 13.7356C52.0532 14.2492 52.709 14.5125 53.4654 14.5125C54.2683 14.5125 54.9436 14.2492 55.4764 13.7297C55.8275 13.3859 56.0271 12.9118 56.0797 12.306H53.4654V11.4603H56.9531C56.9951 11.6432 57.0071 11.8202 57.0071 11.9914Z" fill="white" stroke="white" stroke-width="0.0480233" stroke-miterlimit="10"/>
<path d="M62.5404 9.0591H59.2644V11.2832H62.2178V12.1289H59.2644V14.353H62.5404V15.2148H58.3369V8.19727H62.5404V9.0591Z" fill="white" stroke="white" stroke-width="0.0480233" stroke-miterlimit="10"/>
<path d="M66.4447 15.2148H65.5173V9.0591H63.5078V8.19727H68.4557V9.0591H66.4447V15.2148Z" fill="white" stroke="white" stroke-width="0.0480233" stroke-miterlimit="10"/>
<path d="M72.0371 15.2148V8.19727H72.9631V15.2148H72.0371Z" fill="white" stroke="white" stroke-width="0.0480233" stroke-miterlimit="10"/>
<path d="M77.0668 15.2148H76.1469V9.0591H74.1299V8.19727H79.0838V9.0591H77.0668V15.2148Z" fill="white" stroke="white" stroke-width="0.0480233" stroke-miterlimit="10"/>
<path d="M88.452 14.3121C87.7421 15.0217 86.8627 15.3758 85.8137 15.3758C84.7587 15.3758 83.8793 15.0217 83.1694 14.3121C82.4611 13.6039 82.1084 12.7347 82.1084 11.7061C82.1084 10.6775 82.4611 9.80832 83.1694 9.10013C83.8793 8.39047 84.7587 8.03638 85.8137 8.03638C86.8567 8.03638 87.7361 8.39047 88.446 9.10598C89.1603 9.82003 89.513 10.6833 89.513 11.7061C89.513 12.7347 89.1603 13.6039 88.452 14.3121ZM83.8552 13.7239C84.3895 14.2492 85.0393 14.5125 85.8137 14.5125C86.5821 14.5125 87.2379 14.2492 87.7661 13.7239C88.2989 13.1986 88.569 12.524 88.569 11.7061C88.569 10.8882 88.2989 10.2136 87.7661 9.68834C87.2379 9.16305 86.5821 8.89967 85.8137 8.89967C85.0393 8.89967 84.3895 9.16305 83.8552 9.68834C83.3225 10.2136 83.0524 10.8882 83.0524 11.7061C83.0524 12.524 83.3225 13.1986 83.8552 13.7239Z" fill="white" stroke="white" stroke-width="0.0480233" stroke-miterlimit="10"/>
<path d="M90.8135 15.2148V8.19727H91.939L95.4387 13.655H95.4792L95.4387 12.306V8.19727H96.3647V15.2148H95.3982L91.7334 9.48782H91.6929L91.7334 10.8427V15.2148H90.8135Z" fill="white" stroke="white" stroke-width="0.0480233" stroke-miterlimit="10"/>
<path d="M81.8803 25.4629C79.0605 25.4629 76.7569 27.5553 76.7569 30.4422C76.7569 33.3057 79.0605 35.42 81.8803 35.42C84.7062 35.42 87.0098 33.3057 87.0098 30.4422C87.0098 27.5553 84.7062 25.4629 81.8803 25.4629ZM81.8803 33.4593C80.3331 33.4593 79.002 32.2141 79.002 30.4422C79.002 28.6468 80.3331 27.4236 81.8803 27.4236C83.4276 27.4236 84.7647 28.6468 84.7647 30.4422C84.7647 32.2141 83.4276 33.4593 81.8803 33.4593ZM70.7014 25.4629C67.8756 25.4629 65.5779 27.5553 65.5779 30.4422C65.5779 33.3057 67.8756 35.42 70.7014 35.42C73.5258 35.42 75.8249 33.3057 75.8249 30.4422C75.8249 27.5553 73.5258 25.4629 70.7014 25.4629ZM70.7014 33.4593C69.1527 33.4593 67.817 32.2141 67.817 30.4422C67.817 28.6468 69.1527 27.4236 70.7014 27.4236C72.2487 27.4236 73.5798 28.6468 73.5798 30.4422C73.5798 32.2141 72.2487 33.4593 70.7014 33.4593ZM57.399 26.989V29.1048H62.581C62.4294 30.2871 62.0242 31.1562 61.4029 31.762C60.6466 32.4936 59.4685 33.3057 57.399 33.3057C54.2099 33.3057 51.7127 30.7963 51.7127 27.687C51.7127 24.5777 54.2099 22.0683 57.399 22.0683C59.1233 22.0683 60.3779 22.7252 61.3039 23.5768L62.8331 22.0858C61.538 20.8801 59.8152 19.9539 57.399 19.9539C53.0259 19.9539 49.3506 23.4232 49.3506 27.687C49.3506 31.9508 53.0259 35.42 57.399 35.42C59.7626 35.42 61.538 34.665 62.9337 33.2486C64.3639 31.8542 64.8096 29.8935 64.8096 28.3103C64.8096 27.8187 64.7676 27.3665 64.6925 26.989H57.399ZM111.794 28.6293C111.373 27.5158 110.072 25.4629 107.421 25.4629C104.795 25.4629 102.608 27.4807 102.608 30.4422C102.608 33.2311 104.772 35.42 107.673 35.42C110.019 35.42 111.373 34.0256 111.929 33.2135L110.189 32.0825C109.608 32.9106 108.817 33.4593 107.673 33.4593C106.537 33.4593 105.722 32.9516 105.2 31.9508L112.03 29.1955L111.794 28.6293ZM104.831 30.2871C104.772 28.3674 106.36 27.3841 107.498 27.3841C108.389 27.3841 109.146 27.8187 109.398 28.4405L104.831 30.2871ZM99.2798 35.1171H101.525V20.4851H99.2798V35.1171ZM95.603 26.572H95.528C95.0237 25.9897 94.0618 25.4629 92.8432 25.4629C90.2859 25.4629 87.9478 27.6519 87.9478 30.4583C87.9478 33.2486 90.2859 35.42 92.8432 35.42C94.0618 35.42 95.0237 34.8889 95.528 34.289H95.603V35.003C95.603 36.9067 94.56 37.9294 92.8777 37.9294C91.506 37.9294 90.6551 36.9637 90.3039 36.1516L88.3515 36.9462C88.9143 38.266 90.4045 39.8901 92.8777 39.8901C95.5099 39.8901 97.731 38.3801 97.731 34.706V25.7658H95.603V26.572ZM93.0353 33.4593C91.488 33.4593 90.1929 32.1966 90.1929 30.4583C90.1929 28.7039 91.488 27.4236 93.0353 27.4236C94.56 27.4236 95.7621 28.7039 95.7621 30.4583C95.7621 32.1966 94.56 33.4593 93.0353 33.4593ZM122.305 20.4851H116.936V35.1171H119.175V29.5731H122.305C124.792 29.5731 127.231 27.8187 127.231 25.0283C127.231 22.2394 124.786 20.4851 122.305 20.4851ZM122.364 27.5377H119.175V22.5204H122.364C124.036 22.5204 124.99 23.8739 124.99 25.0283C124.99 26.1608 124.036 27.5377 122.364 27.5377ZM136.205 25.4351C134.587 25.4351 132.905 26.1316 132.213 27.6753L134.2 28.4873C134.628 27.6753 135.414 27.4119 136.246 27.4119C137.407 27.4119 138.585 28.0923 138.603 29.2936V29.4472C138.198 29.219 137.331 28.881 136.264 28.881C134.124 28.881 131.943 30.0296 131.943 32.1732C131.943 34.1339 133.696 35.3966 135.666 35.3966C137.173 35.3966 138.005 34.7338 138.527 33.9627H138.603V35.0937H140.766V29.4809C140.766 26.8866 138.779 25.4351 136.205 25.4351ZM135.935 33.4535C135.203 33.4535 134.182 33.0994 134.182 32.2141C134.182 31.0816 135.455 30.647 136.556 30.647C137.542 30.647 138.005 30.8592 138.603 31.1387C138.428 32.4936 137.232 33.4535 135.935 33.4535ZM148.645 25.7555L146.071 32.0986H145.994L143.334 25.7555H140.919L144.917 34.6197L142.636 39.5521H144.975L151.136 25.7555H148.645ZM128.461 35.1171H130.707V20.4851H128.461V35.1171Z" fill="white"/>
<defs>
<linearGradient id="paint0_linear_80_1424" x1="26.2508" y1="36.6275" x2="6.61218" y2="16.4853" gradientUnits="userSpaceOnUse">
<stop stop-color="#00A0FF"/>
<stop offset="0.0066" stop-color="#00A1FF"/>
<stop offset="0.2601" stop-color="#00BEFF"/>
<stop offset="0.5122" stop-color="#00D2FF"/>
<stop offset="0.7604" stop-color="#00DFFF"/>
<stop offset="1" stop-color="#00E3FF"/>
</linearGradient>
<linearGradient id="paint1_linear_80_1424" x1="40.6999" y1="23.4097" x2="11.6496" y2="23.4097" gradientUnits="userSpaceOnUse">
<stop stop-color="#FFE000"/>
<stop offset="0.4087" stop-color="#FFBD00"/>
<stop offset="0.7754" stop-color="#FFA500"/>
<stop offset="1" stop-color="#FF9C00"/>
</linearGradient>
<linearGradient id="paint2_linear_80_1424" x1="29.8852" y1="20.7238" x2="3.25363" y2="-6.59068" gradientUnits="userSpaceOnUse">
<stop stop-color="#FF3A44"/>
<stop offset="1" stop-color="#C31162"/>
</linearGradient>
<linearGradient id="paint3_linear_80_1424" x1="8.83938" y1="46.6167" x2="20.7316" y2="34.4197" gradientUnits="userSpaceOnUse">
<stop stop-color="#32A071"/>
<stop offset="0.0685" stop-color="#2DA771"/>
<stop offset="0.4762" stop-color="#15CF74"/>
<stop offset="0.8009" stop-color="#06E775"/>
<stop offset="1" stop-color="#00F076"/>
</linearGradient>
</defs>
</svg>
