<?xml version="1.0" encoding="utf-8"?>
<!-- Generator: Adobe Illustrator 26.4.1, SVG Export Plug-In . SVG Version: 6.00 Build 0)  -->
<svg version="1.1" id="Layer_1" xmlns="http://www.w3.org/2000/svg" xmlns:xlink="http://www.w3.org/1999/xlink" x="0px" y="0px"
	 width="65.2px" height="49.5px" viewBox="0 0 65.2 49.5" style="enable-background:new 0 0 65.2 49.5;" xml:space="preserve">
<style type="text/css">
	.st0{fill:#D1D3D4;}
	.st1{fill:#636467;}
	.st2{fill:#A51E22;}
</style>
<g>
	<path class="st0" d="M54.2,14.3c-0.2-0.7-0.5-1.4-0.8-2.1c-0.3-0.7-0.6-1.4-1-2.1c-0.7-1.3-1.5-2.6-2.5-3.8c-0.9-1.2-2-2.3-3.2-3.2
		c-0.3-0.2-0.6-0.4-0.9-0.6c-0.3-0.2-0.6-0.4-0.9-0.6c-0.3-0.2-0.7-0.3-1-0.5c-0.3-0.2-0.7-0.3-1-0.4l0.2,0c-0.7,0-1.4,0.1-2.1,0.2
		c-0.7,0.1-1.4,0.2-2.1,0.3c-1.4,0.2-2.8,0.5-4.2,0.8c-1.4,0.3-2.8,0.7-4.2,1.1c-0.7,0.2-1.4,0.4-2.1,0.7c-0.7,0.2-1.4,0.5-2,0.7
		c-0.7,0.3-1.3,0.5-2,0.8c-0.7,0.3-1.3,0.6-2,0.9c-0.6,0.3-1.3,0.7-1.9,1c-0.6,0.4-1.2,0.7-1.8,1.1l-0.9,0.6L16.7,10
		c-0.6,0.4-1.2,0.9-1.7,1.3c-0.5,0.5-1.1,0.9-1.6,1.5c-0.5,0.5-1,1-1.5,1.6c0.4-0.6,0.9-1.2,1.4-1.7c0.5-0.6,1-1.1,1.5-1.6
		c0.5-0.5,1.1-1,1.6-1.5l0.8-0.7l0.9-0.7c0.6-0.4,1.2-0.8,1.8-1.3c0.6-0.4,1.3-0.8,1.9-1.1c0.6-0.4,1.3-0.7,2-1
		c0.7-0.3,1.3-0.6,2-0.9c2.7-1.2,5.5-2,8.4-2.7c0.7-0.2,1.4-0.3,2.2-0.4c0.7-0.1,1.5-0.2,2.2-0.3c0.7-0.1,1.5-0.2,2.2-0.3
		C41.5,0.1,42.2,0,43,0l0.1,0l0.1,0c0.4,0.2,0.8,0.3,1.1,0.5C44.6,0.7,45,0.8,45.3,1c0.3,0.2,0.7,0.4,1,0.6c0.3,0.2,0.6,0.5,0.9,0.7
		c1.2,1,2.3,2.2,3.2,3.5c0.9,1.3,1.6,2.6,2.2,4.1C53.3,11.3,53.8,12.8,54.2,14.3"/>
	<path class="st0" d="M47.7,8.8c0,0-0.1-0.1-0.2-0.2c-0.1-0.1-0.2-0.1-0.3-0.2c-0.1-0.1-0.2-0.1-0.4-0.2c-0.1-0.1-0.3-0.1-0.5-0.2
		C46.3,8,46.1,8,45.9,8c-0.2,0-0.4-0.1-0.6-0.1c-0.2,0-0.4,0-0.6,0c-0.2,0-0.4,0-0.6,0.1c-0.2,0-0.4,0.1-0.6,0.1
		c-0.2,0-0.4,0.1-0.5,0.1c-0.2,0.1-0.3,0.1-0.4,0.2c-0.5,0.2-0.9,0.5-0.9,0.5s0.4,0,1-0.1c0.1,0,0.3-0.1,0.5-0.1
		c0.2,0,0.3,0,0.5-0.1c0.2,0,0.4,0,0.5-0.1c0.2,0,0.4,0,0.6,0c0.2,0,0.4,0,0.6,0c0.2,0,0.4,0,0.5,0c0.2,0,0.3,0,0.5,0
		c0.2,0,0.3,0,0.5,0.1c0.1,0,0.3,0.1,0.4,0.1c0.1,0,0.2,0,0.3,0.1C47.6,8.8,47.7,8.8,47.7,8.8"/>
	<path class="st0" d="M48.7,13.3c0,0-0.1-0.1-0.3-0.3c-0.1-0.1-0.2-0.2-0.4-0.2c-0.1-0.1-0.3-0.2-0.5-0.3c-0.2-0.1-0.4-0.1-0.6-0.2
		c-0.2-0.1-0.4-0.1-0.7-0.2c-0.2,0-0.5-0.1-0.7-0.1c-0.3,0-0.5,0-0.8,0c-0.3,0-0.5,0-0.8,0.1c-0.2,0-0.5,0.1-0.7,0.2
		c-0.2,0.1-0.5,0.1-0.7,0.2c-0.2,0.1-0.4,0.2-0.6,0.3c-0.4,0.2-0.7,0.3-0.9,0.4c-0.2,0.1-0.3,0.2-0.3,0.2s0.1,0,0.3-0.1
		c0.2,0,0.5-0.1,0.9-0.2c0.2,0,0.4-0.1,0.6-0.1c0.2,0,0.4-0.1,0.7-0.1c0.2,0,0.5-0.1,0.7-0.1c0.2-0.1,0.5,0,0.7,0c0.2,0,0.5,0,0.7,0
		c0.2,0,0.5,0,0.7,0.1c0.2,0,0.5,0,0.7,0.1c0.2,0,0.4,0.1,0.6,0.1c0.2,0,0.3,0.1,0.5,0.1c0.2,0,0.3,0.1,0.4,0.1
		C48.6,13.2,48.7,13.3,48.7,13.3"/>
	<path class="st0" d="M42.4,8.6c0.1,0,0.1,0,0.2,0c0,0.2,0,0.4,0,0.6c0,0.7,0,1.7-0.1,2.7c0,0.3-0.1,0.7-0.1,1c-0.2,0-0.3,0-0.5-0.1
		c0-0.3,0-0.6,0.1-1c0.1-1,0.2-2,0.4-2.7C42.3,9,42.3,8.7,42.4,8.6"/>
	<path class="st0" d="M47.8,12.9c0-0.3-0.1-0.6-0.1-0.9c-0.1-0.4-0.1-0.8-0.2-1.1c-0.1-0.4-0.2-0.7-0.2-1C47.1,9.4,47,9,47,9
		s0.2,0.3,0.5,0.9c0.2,0.6,0.5,1.3,0.6,2.1c0.1,0.4,0.1,0.8,0.1,1.1C48.1,13,48,13,47.8,12.9"/>
	<path class="st0" d="M30.3,5.8c0,0,0.6-0.3,1.6-0.8c1-0.5,2.5-1.1,4.4-1.8c0.9-0.3,1.9-0.7,3-1c0.3-0.1,0.6-0.1,0.9-0.2
		c0.2,0,0.3,0,0.5,0c0.1,0,0.2,0,0.3,0.1c0.1,0,0.4,0.1,0.5,0.4c0.1,0.5-0.1,0.7-0.2,0.8c-0.1,0.2-0.2,0.3-0.3,0.4
		c-0.2,0.2-0.5,0.4-0.7,0.6c-1.9,1.6-4.2,2.9-6.4,4.3c-1.1,0.7-2.1,1.5-3.1,2.2c-0.5,0.4-1,0.8-1.4,1.2c-0.4,0.4-0.8,0.9-0.8,1.2
		c-0.1,0.2,0.4,0.5,0.9,0.7c0.5,0.2,1,0.3,1.6,0.4c1.1,0.2,2.1,0.3,3.1,0.4c2,0.2,3.6,0.3,4.7,0.4c1.1,0.1,1.8,0.2,1.8,0.2
		s-0.7,0-1.8,0c-1.1,0-2.8,0-4.7,0c-1,0-2-0.1-3.2-0.2c-0.6-0.1-1.2-0.2-1.8-0.3c-0.3-0.1-0.6-0.2-0.9-0.5c-0.3-0.2-0.6-0.7-0.6-1.2
		c0.1-0.9,0.6-1.4,1-2c0.4-0.5,0.9-0.9,1.4-1.4c1-0.8,2.1-1.6,3.2-2.3c2.2-1.5,4.5-2.7,6.4-4.2c0.2-0.2,0.5-0.4,0.7-0.6
		c0.1-0.1,0.2-0.2,0.3-0.3c0.1-0.1,0.1-0.2,0.1,0c0.2,0.3,0.1,0.1,0,0.1c-0.1,0-0.2,0-0.4,0c-0.3,0-0.5,0.1-0.8,0.1
		c-1.1,0.2-2.1,0.5-3,0.8c-1.9,0.6-3.4,1.1-4.5,1.4C30.9,5.6,30.3,5.8,30.3,5.8"/>
	<path class="st0" d="M26.5,3.1c-0.3-0.5-0.9-1.4-1.3-1.8c0,0-1.7,0-2.3,0.4c-0.4,0.2-0.7,2-1,3.1C23.6,4.1,25.3,3.5,26.5,3.1"/>
	<polygon class="st1" points="23.7,43.1 22.2,47.7 21.9,47.7 20.8,44.7 19.7,47.7 19.5,47.7 17.9,43.1 18.4,43.1 19.6,46.9 
		20.7,43.9 20.9,43.9 22,46.9 23.3,43.1 	"/>
	<path class="st1" d="M26,41.5c0.1,0.1,0.1,0.2,0.1,0.3c0,0.1,0,0.2-0.1,0.3c-0.1,0.1-0.2,0.1-0.3,0.1c-0.1,0-0.2,0-0.3-0.1
		c-0.1-0.1-0.1-0.2-0.1-0.3c0-0.1,0-0.2,0.1-0.3c0.1-0.1,0.2-0.1,0.3-0.1C25.8,41.4,25.9,41.5,26,41.5 M25.9,47.7h-0.4v-4.6h0.4
		V47.7z"/>
	<path class="st1" d="M28.6,44.1v3.6h-0.4v-4.6h0.4v0.3c0.4-0.4,0.8-0.6,1.3-0.6c0.5,0,1,0.2,1.3,0.5s0.5,0.8,0.5,1.3v3.1h-0.4v-3.1
		c0-0.4-0.1-0.7-0.4-1c-0.3-0.3-0.6-0.4-1-0.4c-0.4,0-0.7,0.1-1,0.4C28.8,43.8,28.7,43.9,28.6,44.1"/>
	<path class="st1" d="M34.2,45c0,0.1,0,0.2,0,0.2c0,0.6,0.2,1.1,0.6,1.5c0.4,0.4,0.9,0.6,1.5,0.6c0.6,0,1.1-0.2,1.5-0.6
		c0.1-0.1,0.1-0.1,0.2-0.2l0.5,0.2c-0.1,0.1-0.2,0.2-0.3,0.4c-0.5,0.5-1.1,0.8-1.8,0.8c-0.7,0-1.3-0.3-1.8-0.8
		c-0.5-0.5-0.8-1.1-0.8-1.8c0-0.7,0.3-1.3,0.8-1.8c0.5-0.5,1.1-0.8,1.8-0.8c0.7,0,1.3,0.3,1.8,0.8c0.4,0.4,0.7,1,0.7,1.6H34.2z
		 M34.2,44.6h4.1c-0.1-0.3-0.3-0.6-0.5-0.8c-0.4-0.4-0.9-0.6-1.5-0.6c-0.6,0-1.1,0.2-1.5,0.6C34.5,44,34.3,44.3,34.2,44.6"/>
	<path class="st1" d="M42.3,43.4c-0.3,0-0.6,0.2-0.9,0.6c-0.3,0.3-0.4,0.7-0.4,1v2.7h-0.4v-4.6h0.4v1c0.2-0.5,0.5-0.8,1.1-1
		L42.3,43.4z"/>
	<polygon class="st1" points="45.1,49.5 44.6,49.5 45.8,46.8 44,43.1 44.5,43.1 46,46.3 47.6,43.1 48,43.1 	"/>
	<path class="st1" d="M14.3,36.1l0.8,0.7c-1.7,1.6-3.7,2.3-6.1,2.3c-2.5,0-4.6-0.9-6.4-2.6C0.9,34.7,0,32.6,0,30.1
		c0-2.5,0.9-4.6,2.6-6.4C4.4,22,6.5,21.1,9,21.1c2.3,0,4.4,0.8,6.1,2.4l-0.8,0.7c-1.5-1.3-3.3-2-5.3-2c-2.2,0-4.1,0.8-5.7,2.3
		C1.8,26,1,27.9,1,30.1c0,2.2,0.8,4.1,2.3,5.7c1.6,1.6,3.5,2.3,5.7,2.3C11.1,38.1,12.8,37.5,14.3,36.1"/>
	<rect x="19.7" y="24.6" class="st1" width="1" height="14.4"/>
	<rect x="19.7" y="21.3" class="st2" width="1" height="1.9"/>
	<rect x="48.8" y="24.6" class="st1" width="1" height="14.4"/>
	<rect x="48.8" y="21.3" class="st2" width="1" height="1.9"/>
	<polygon class="st1" points="33.7,21.3 33.7,22.3 27,22.3 27,29.6 33.7,29.6 33.7,30.6 27,30.6 27,38.9 26,38.9 26,21.3 	"/>
	<polygon class="st1" points="37.4,38.9 37.4,21.3 38.4,21.3 38.4,37.9 45.1,37.9 45.1,38.9 	"/>
	<polygon class="st1" points="56.3,27.9 60.9,21.3 62.1,21.3 57.5,27.9 65.2,38.9 64,38.9 	"/>
	<rect x="54" y="21.3" class="st1" width="1" height="17.6"/>
	<rect x="8.7" y="19.1" transform="matrix(0.7075 -0.7067 0.7067 0.7075 -11.1657 12.2073)" class="st2" width="1" height="1"/>
	<rect x="7.5" y="17.2" transform="matrix(0.7069 -0.7073 0.7073 0.7069 -10.6742 11.0229)" class="st1" width="1" height="2.4"/>
	<rect x="9.2" y="17.9" transform="matrix(0.7073 -0.7069 0.7069 0.7073 -9.9679 12.7112)" class="st1" width="2.4" height="1"/>
</g>
</svg>
