<svg width="167" height="160" viewBox="0 0 167 160" fill="none" xmlns="http://www.w3.org/2000/svg">
<g clip-path="url(#clip0_60_1013)">
<path d="M150.288 155.008C150.92 155.048 151.269 154.263 150.791 153.806L150.744 153.617C150.75 153.602 150.756 153.587 150.762 153.572C151.401 152.049 153.565 152.059 154.198 153.584C154.76 154.938 155.476 156.293 155.652 157.724C155.731 158.356 155.695 159 155.555 159.62C156.872 156.743 157.565 153.603 157.565 150.444C157.565 149.651 157.521 148.857 157.432 148.065C157.359 147.418 157.259 146.774 157.128 146.137C156.424 142.69 154.898 139.407 152.697 136.665C151.639 136.087 150.756 135.183 150.223 134.099C150.032 133.708 149.882 133.288 149.811 132.859C149.931 132.875 150.265 131.041 150.174 130.929C150.342 130.674 150.642 130.547 150.825 130.299C151.737 129.063 152.993 129.279 153.648 130.958C155.049 131.665 155.062 132.837 154.203 133.965C153.656 134.682 153.581 135.653 153.101 136.42C153.151 136.484 153.202 136.545 153.251 136.608C154.156 137.769 154.939 139.016 155.599 140.327C155.412 138.87 155.688 137.115 156.157 135.984C156.691 134.695 157.693 133.61 158.575 132.495C159.634 131.157 161.806 131.741 161.993 133.438C161.995 133.454 161.997 133.471 161.998 133.487C161.867 133.561 161.739 133.639 161.614 133.722C160.899 134.195 161.146 135.304 161.993 135.434L162.012 135.437C161.965 135.909 161.884 136.377 161.765 136.837C162.897 141.212 160.454 142.806 156.967 142.878C156.89 142.917 156.814 142.957 156.737 142.994C157.091 143.989 157.373 145.01 157.582 146.044C157.77 146.958 157.9 147.882 157.973 148.81C158.064 149.98 158.056 151.157 157.957 152.325L157.963 152.284C158.214 150.997 158.913 149.795 159.928 148.962C161.439 147.72 163.575 147.263 165.205 146.265C165.99 145.784 166.996 146.405 166.859 147.315L166.853 147.359C166.61 147.457 166.373 147.572 166.144 147.7C166.013 147.774 165.885 147.853 165.759 147.935C165.044 148.408 165.291 149.517 166.139 149.648L166.158 149.651C166.172 149.653 166.183 149.654 166.197 149.656C165.781 150.645 165.2 151.563 164.474 152.355C163.766 156.175 160.728 156.537 157.478 155.425H157.476C157.12 156.972 156.601 158.484 155.934 159.926H150.426C150.407 159.864 150.389 159.801 150.371 159.74C150.88 159.772 151.394 159.742 151.895 159.649C151.487 159.148 151.078 158.642 150.669 158.141C150.659 158.131 150.651 158.121 150.644 158.111C150.436 157.855 150.227 157.6 150.02 157.343L150.02 157.343C150.007 156.555 150.101 155.77 150.288 155.008Z" fill="#F2F2F2"/>
<path d="M48.9551 159.636C48.9551 159.838 49.1171 160 49.3188 160H166.466C166.667 160 166.829 159.838 166.829 159.636C166.829 159.434 166.667 159.272 166.466 159.272H49.3188C49.1171 159.272 48.9551 159.434 48.9551 159.636Z" fill="#CCCCCC"/>
<path d="M66.7311 159.845H12.8096C6.23479 159.845 0.885742 154.496 0.885742 147.921V32.04C0.885742 25.4653 6.23479 20.1162 12.8096 20.1162H66.7311C73.3058 20.1162 78.6548 25.4653 78.6548 32.04V147.921C78.6548 154.496 73.3058 159.845 66.7311 159.845Z" fill="#3F3D56"/>
<path d="M78.6548 62.7412C78.3766 62.7412 78.1504 62.9674 78.1504 63.2456V79.3876C78.1504 79.6658 78.3766 79.892 78.6548 79.892C78.933 79.892 79.1593 79.6658 79.1593 79.3876V63.2456C79.1593 62.9674 78.933 62.7412 78.6548 62.7412Z" fill="#3F3D56"/>
<path d="M77.5197 32.0399V147.919C77.5197 153.642 73.0655 158.323 67.4334 158.686H67.4309C67.3477 158.691 67.2645 158.696 67.1787 158.699C67.0299 158.706 66.8811 158.709 66.7298 158.709C66.7298 158.709 66.1749 158.669 65.161 158.593C64.137 158.517 62.6464 158.404 60.7875 158.255C60.2301 158.212 59.6424 158.164 59.022 158.114C57.7861 158.013 56.4292 157.902 54.9739 157.776C54.3938 157.728 53.7935 157.675 53.1806 157.622C50.0481 157.352 46.5397 157.037 42.8397 156.679C42.2142 156.62 41.5836 156.56 40.948 156.497C40.7816 156.479 40.6126 156.464 40.4436 156.446C37.8054 156.187 2.02051 149.271 2.02051 147.919V32.0399C2.02051 26.08 6.85049 21.25 12.8104 21.25H19.2521C20.2811 21.25 21.1084 22.0521 21.1967 23.0786C21.2042 23.1467 21.2118 23.2148 21.2244 23.2829C21.411 24.3145 22.3569 25.0333 23.4061 25.0333H56.1341C57.1833 25.0333 58.1291 24.3145 58.3158 23.2829C58.3284 23.2148 58.3359 23.1467 58.3435 23.0786C58.4318 22.0521 59.259 21.25 60.2881 21.25H66.7298C72.6897 21.25 77.5197 26.08 77.5197 32.0399Z" fill="white"/>
<path d="M0.633341 50.6345C0.355137 50.6345 0.128906 50.8608 0.128906 51.139V55.1744C0.128906 55.4526 0.35514 55.6789 0.633341 55.6789C0.911542 55.6789 1.13778 55.4526 1.13778 55.1744V51.139C1.13778 50.8608 0.911542 50.6345 0.633341 50.6345Z" fill="#3F3D56"/>
<path d="M0.633341 62.7412C0.355137 62.7412 0.128906 62.9674 0.128906 63.2456V71.0644C0.128906 71.3426 0.35514 71.5688 0.633341 71.5688C0.911542 71.5688 1.13778 71.3426 1.13778 71.0644V63.2456C1.13778 62.9674 0.911542 62.7412 0.633341 62.7412Z" fill="#3F3D56"/>
<path d="M0.633341 73.8386C0.355137 73.8386 0.128906 74.0649 0.128906 74.3431V82.1618C0.128906 82.44 0.35514 82.6663 0.633341 82.6663C0.911542 82.6663 1.13778 82.44 1.13778 82.1618V74.3431C1.13778 74.0649 0.911542 73.8386 0.633341 73.8386Z" fill="#3F3D56"/>
<path d="M19.0767 23.0168H9.42977C9.37741 23.0168 9.33496 23.0593 9.33496 23.1117V24.1831C9.33496 24.2355 9.37741 24.2779 9.42977 24.2779H19.0767C19.129 24.2779 19.1715 24.2355 19.1715 24.1831V23.1117C19.1715 23.0593 19.129 23.0168 19.0767 23.0168Z" fill="#E6E6E6"/>
<path d="M61.8819 24.278C62.4391 24.278 62.8908 23.8263 62.8908 23.2691C62.8908 22.7119 62.4391 22.2603 61.8819 22.2603C61.3247 22.2603 60.873 22.7119 60.873 23.2691C60.873 23.8263 61.3247 24.278 61.8819 24.278Z" fill="#E6E6E6"/>
<path d="M64.6563 24.2778C65.2135 24.2778 65.6652 23.8261 65.6652 23.2689C65.6652 22.7117 65.2135 22.26 64.6563 22.26C64.0991 22.26 63.6475 22.7117 63.6475 23.2689C63.6475 23.8261 64.0991 24.2778 64.6563 24.2778Z" fill="#E6E6E6"/>
<path d="M67.4308 24.2778C67.9879 24.2778 68.4396 23.8261 68.4396 23.2689C68.4396 22.7117 67.9879 22.26 67.4308 22.26C66.8736 22.26 66.4219 22.7117 66.4219 23.2689C66.4219 23.8261 66.8736 24.2778 67.4308 24.2778Z" fill="#E6E6E6"/>
<path d="M61.0388 91.2366H18.2499C17.5758 91.2366 17.0273 90.6881 17.0273 90.014C17.0273 89.3399 17.5758 88.7915 18.2499 88.7915H61.0388C61.7129 88.7915 62.2613 89.3399 62.2613 90.014C62.2613 90.6881 61.7129 91.2366 61.0388 91.2366Z" fill="#E6E6E6"/>
<path d="M39.7971 138.61C49.5874 138.61 57.524 130.674 57.524 120.884C57.524 111.093 49.5874 103.157 39.7971 103.157C30.0069 103.157 22.0703 111.093 22.0703 120.884C22.0703 130.674 30.0069 138.61 39.7971 138.61Z" fill="#FEC20E"/>
<path d="M42.6151 115.096C41.119 115.157 39.4277 115.26 38.322 116.408C37.3613 117.405 37.1508 118.885 38.125 119.95C39.1017 121.017 40.6203 121.162 41.7462 121.994C43.0683 122.972 42.8746 124.907 41.5953 125.834C40.0867 126.927 38.1388 126.417 36.7596 125.377C36.4062 125.111 36.0631 125.708 36.4126 125.971C37.6482 126.903 39.2607 127.421 40.7885 126.976C42.1673 126.573 43.2362 125.449 43.3449 123.986C43.3968 123.289 43.1983 122.58 42.7643 122.029C42.3062 121.447 41.6463 121.089 40.9792 120.798C39.8308 120.297 37.8535 119.648 38.1874 118.016C38.5921 116.037 41.0004 115.85 42.6151 115.783C43.056 115.765 43.0583 115.077 42.6151 115.096Z" fill="white"/>
<path d="M39.8394 114.16L39.7734 129.256C39.7715 129.698 40.4592 129.699 40.4611 129.256L40.5271 114.16C40.529 113.717 39.8413 113.716 39.8394 114.16Z" fill="white"/>
<path d="M133.717 0H46.3181C43.112 0 40.5049 2.60706 40.5049 5.81316V65.7054C40.5049 68.9115 43.112 71.5185 46.3181 71.5185H133.717C136.923 71.5185 139.531 68.9115 139.531 65.7054V5.81316C139.531 2.60706 136.923 0 133.717 0Z" fill="white"/>
<path d="M89.6163 35.6114C95.0178 35.6114 99.3966 31.2326 99.3966 25.8311C99.3966 20.4296 95.0178 16.0508 89.6163 16.0508C84.2147 16.0508 79.8359 20.4296 79.8359 25.8311C79.8359 31.2326 84.2147 35.6114 89.6163 35.6114Z" fill="#FEC20E"/>
<path d="M91.471 21.4666C90.2604 21.5164 88.8975 21.5932 87.9817 22.4941C87.2231 23.2404 86.9578 24.4022 87.6549 25.2809C88.3888 26.2061 89.6094 26.3816 90.5675 26.9729C91.1629 27.3403 91.5575 27.897 91.5703 28.6124C91.5823 29.2821 91.2732 29.9079 90.7565 30.3277C89.4887 31.3576 87.7598 30.9312 86.5604 30.0305C86.3244 29.8533 86.0956 30.2511 86.329 30.4264C87.3223 31.1723 88.6013 31.6056 89.8373 31.2846C90.9751 30.9892 91.8916 30.0942 92.0148 28.8982C92.1448 27.6377 91.3171 26.7794 90.2439 26.287C89.2629 25.8369 87.5424 25.3574 87.7046 23.9592C87.9108 22.1814 90.0871 21.982 91.471 21.925C91.765 21.9129 91.7665 21.4544 91.471 21.4666Z" fill="white"/>
<path d="M89.3675 20.6352L89.3125 33.2146C89.3112 33.5097 89.7697 33.51 89.771 33.2146L89.8259 20.6352C89.8272 20.3402 89.3688 20.3398 89.3675 20.6352Z" fill="white"/>
<path d="M133.717 0H46.3181C43.112 0 40.5049 2.60706 40.5049 5.81316V65.7054C40.5049 68.9115 43.112 71.5185 46.3181 71.5185H133.717C136.923 71.5185 139.531 68.9115 139.531 65.7054V5.81316C139.531 2.60706 136.923 0 133.717 0ZM138.919 65.7054C138.919 68.5753 136.587 70.9073 133.717 70.9073H46.3181C43.4481 70.9073 41.1162 68.5753 41.1162 65.7054V5.81316C41.1162 2.94327 43.4481 0.61127 46.3181 0.61127H133.717C136.587 0.61127 138.919 2.94326 138.919 5.81316V65.7054Z" fill="#3F3D56"/>
<path d="M79.9406 5.91406H71.3645C70.9335 5.91406 70.582 6.26555 70.582 6.69649C70.582 7.13048 70.9335 7.48197 71.3645 7.48197H79.9406C80.3715 7.48197 80.723 7.13049 80.723 6.69649C80.723 6.26555 80.3715 5.91406 79.9406 5.91406Z" fill="#E6E6E6"/>
<path d="M94.3058 5.91406H85.7297C85.2988 5.91406 84.9473 6.26555 84.9473 6.69649C84.9473 7.13048 85.2988 7.48197 85.7297 7.48197H94.3058C94.7368 7.48197 95.0883 7.13049 95.0883 6.69649C95.0883 6.26555 94.7368 5.91406 94.3058 5.91406Z" fill="#E6E6E6"/>
<path d="M108.67 5.91406H100.094C99.663 5.91406 99.3115 6.26555 99.3115 6.69649C99.3115 7.13048 99.663 7.48197 100.094 7.48197H108.67C109.101 7.48197 109.453 7.13049 109.453 6.69649C109.453 6.26555 109.101 5.91406 108.67 5.91406Z" fill="#E6E6E6"/>
<path d="M122.815 41.1128H57.2197C54.4904 41.1128 52.2715 43.3317 52.2715 46.061V50.5294C52.2715 53.2587 54.4904 55.4776 57.2197 55.4776H122.815C125.544 55.4776 127.763 53.2587 127.763 50.5294V46.061C127.763 43.3317 125.544 41.1128 122.815 41.1128Z" fill="#FEC20E"/>
<path d="M22.4948 64.6393L19.9795 63.4477C21.0112 64.8875 21.9002 67.1361 22.3761 68.9255C23.1819 67.2587 24.4809 65.2193 25.7667 64.0011L23.1083 64.685C24.7464 56.6566 30.9078 50.893 37.9635 50.893V50.2817C30.5936 50.2817 24.1674 56.2867 22.4948 64.6393Z" fill="#3F3D56"/>
<path d="M34.0726 76.8718H18.1796C17.5055 76.8718 16.957 76.3234 16.957 75.6493C16.957 74.9752 17.5055 74.4268 18.1796 74.4268H34.0726C34.7467 74.4268 35.2951 74.9752 35.2951 75.6493C35.2951 76.3234 34.7467 76.8718 34.0726 76.8718Z" fill="#E6E6E6"/>
<path d="M139.798 72.8903L139.637 85.372L136.532 96.4988L134.049 95.5727L135.151 85.3739L135.006 71.5723L139.798 72.8903Z" fill="#FFB6B6"/>
<path d="M136.52 98.2931C136.812 96.6932 136.278 95.2559 135.328 95.083C134.378 94.91 133.372 96.0668 133.08 97.6668C132.789 99.2667 133.323 100.704 134.273 100.877C135.223 101.05 136.229 99.8931 136.52 98.2931Z" fill="#FFB6B6"/>
<path d="M136.029 58.0283C136.029 58.0283 141.349 58.1016 141.344 60.9277C141.342 62.5234 140.999 77.0112 140.045 85.8124C139.31 92.5996 137.906 94.3702 137.906 94.3702L134.544 86.7293L136.029 58.0283Z" fill="#E6E6E6"/>
<path d="M135.891 83.5296H117.924C119.43 80.169 120.356 76.9685 118.908 74.4227L135.891 73.4382C135.043 76.8749 134.939 80.2476 135.891 83.5296Z" fill="#FFB6B6"/>
<path d="M133.677 53.7476L126.539 53.2554L123.585 56.9473L122.088 57.2196C119.843 57.6277 118.245 59.6307 118.345 61.9098L118.928 75.1476L135.988 76.3917L140.076 59.1532L135.153 57.1935L133.677 53.7476Z" fill="#E6E6E6"/>
<path d="M90.1475 57.7411C90.6539 58.1966 91.0155 58.7288 91.2064 59.245L96.3048 63.2802L94.3137 65.65L89.3563 61.3016C88.8229 61.1661 88.2555 60.8627 87.7491 60.4071C86.5922 59.3663 86.1913 57.9258 86.8536 57.1896C87.5159 56.4534 88.9906 56.7003 90.1475 57.7411Z" fill="#FFB6B6"/>
<path d="M126.193 61.1381L106.658 74.3291L92.6553 64.5843L94.7576 60.7761L105.779 67.1811L115.943 59.377C119.562 55.9773 124.098 56.6363 126.193 61.1381Z" fill="#E6E6E6"/>
<path d="M129.684 52.1502C132.609 52.1502 134.98 49.7793 134.98 46.8547C134.98 43.9302 132.609 41.5593 129.684 41.5593C126.76 41.5593 124.389 43.9302 124.389 46.8547C124.389 49.7793 126.76 52.1502 129.684 52.1502Z" fill="#FFB6B6"/>
<path d="M136.882 45.5537V46.5806L130.91 44.8996L126.432 45.8379C126.38 45.1564 126.179 44.487 125.842 43.8941C126.076 44.8451 126.102 45.5808 125.855 45.9602L125.252 46.0855C125.155 45.8196 124.965 45.5873 124.718 45.4467C124.693 45.4314 124.663 45.4192 124.635 45.4284C124.592 45.4437 124.589 45.4987 124.589 45.5415C124.595 45.7676 124.601 45.9938 124.611 46.22L122.881 46.5806V45.5537C121.221 41.8195 125.595 38.5882 129.883 38.5547C131.817 38.5395 133.566 39.3371 134.834 40.6024C136.099 41.8708 136.882 43.619 136.882 45.5537Z" fill="#0D153D"/>
<path d="M140.242 57.595L139.791 57.5577C139.823 57.4102 139.855 57.2646 139.884 57.1171C140.134 55.8794 139.584 54.3039 139.544 53.1147C139.331 54.3711 139.694 55.9168 139.319 57.1097C139.277 57.2422 137.645 58.0976 137.6 58.2282C135.794 57.5677 133.913 55.4574 131.784 56.69C130.524 57.419 129.087 57.0995 127.657 56.7657C127.303 56.683 127.253 54.9349 126.903 54.8662C126.276 54.7432 125.354 56.3323 124.764 56.3944L127.209 46.9197C127.209 41.7655 126.731 36.3578 133.26 38.1803C134.902 38.6387 136.528 38.998 137.74 40.3533C138.952 41.7104 139.814 43.6071 140.12 45.767C140.305 47.07 141.455 51.4943 140.242 57.595Z" fill="#0D153D"/>
<path d="M136.026 152.873L133.111 152.941L131.486 139.847L135.788 139.745L136.026 152.873Z" fill="#FFB7B7"/>
<path d="M126.025 158.954C126.025 159.446 126.375 159.845 126.806 159.845H132.591C132.591 159.845 133.161 157.557 135.482 156.572L135.642 159.845H138.627L138.265 154.581C138.265 154.581 139.063 151.765 137.405 150.326C135.747 148.886 137.09 149.087 137.09 149.087L136.438 145.829L131.928 146.359L131.895 151.473L129.706 156.549L126.496 158.135C126.21 158.276 126.025 158.598 126.025 158.954Z" fill="#0D153D"/>
<path d="M127.158 150.739L124.356 151.545L119.462 139.291L123.597 138.101L127.158 150.739Z" fill="#FFB7B7"/>
<path d="M119.028 159.158C119.153 159.634 119.593 159.932 120.009 159.823L125.606 158.354C125.606 158.354 125.575 155.996 127.571 154.455L128.556 157.58L131.443 156.823L129.758 151.823C129.758 151.823 129.815 148.897 127.846 147.925C125.877 146.954 127.227 146.807 127.227 146.807L125.77 143.821L121.542 145.478L122.808 150.433L121.979 155.899L119.276 158.247C119.035 158.456 118.938 158.814 119.028 159.158Z" fill="#0D153D"/>
<path d="M134.238 82.7561L136.072 83.3674C138.939 88.6628 140.155 95.6948 139.994 104.174L136.736 142.26H131.407L127.507 99.8312L120.63 115.756L125.662 142.26L120.63 142.773L110.496 115.213L117.554 83.1823L134.238 82.7561Z" fill="#0D153D"/>
</g>
<defs>
<clipPath id="clip0_60_1013">
<rect width="166.743" height="160" fill="white" transform="translate(0.128906)"/>
</clipPath>
</defs>
</svg>
