<svg width="231" height="160" viewBox="0 0 231 160" fill="none" xmlns="http://www.w3.org/2000/svg">
<g clip-path="url(#clip0_60_938)">
<path d="M29.3157 142.327L32.8667 142.411L31.5254 153.222L29.1191 153.165L29.3157 142.327Z" fill="#FFB6B6"/>
<path d="M37.3749 158.185C37.3749 157.892 37.2221 157.626 36.9862 157.51L34.336 156.201L32.5292 152.01L32.5018 147.788L28.7785 147.35L28.2401 150.04C28.2401 150.04 29.3488 149.874 27.9799 151.063C26.6111 152.251 27.2702 154.576 27.2702 154.576L26.9717 158.922H29.4356L29.5679 156.219C31.4842 157.032 31.9542 158.922 31.9542 158.922H36.7305C37.0864 158.922 37.3749 158.592 37.3749 158.185Z" fill="#0D153D"/>
<path d="M34.5178 142.446L38.0689 142.53L36.7276 153.341L34.3213 153.284L34.5178 142.446Z" fill="#FFB6B6"/>
<path d="M42.577 158.304C42.577 158.011 42.4243 157.745 42.1884 157.629L39.5382 156.32L37.7313 152.129L37.7039 147.907L33.9807 147.469L33.4422 150.159C33.4422 150.159 34.5509 149.993 33.1821 151.182C31.8132 152.37 32.4724 154.695 32.4724 154.695L32.1738 159.04H34.6377L34.77 156.338C36.6864 157.151 37.1564 159.04 37.1564 159.04H41.9327C42.2885 159.04 42.577 158.711 42.577 158.304Z" fill="#0D153D"/>
<path d="M30.4448 79.0366L26.4191 88.649C25.0772 91.8532 24.6519 95.3672 25.1908 98.799L27.1474 146.021H34.8831L38.2597 103.97L38.926 120.58L31.1819 144.247H38.7985L48.5749 120.58L49.2997 102.357L45.8264 88.216L30.4448 79.0366Z" fill="#0D153D"/>
<path d="M139.507 37.9061V13.8962C139.507 6.22153 133.285 1.93778e-09 125.61 1.93778e-09H74.7411C67.0665 -0.000126784 60.8449 6.22131 60.8447 13.896V145.616C60.8447 153.291 67.0663 159.512 74.7409 159.512H125.61C133.284 159.512 139.506 153.291 139.506 145.616V54.9967C139.989 54.9967 140.381 54.6048 140.381 54.1214L140.382 38.7814C140.382 38.298 139.99 37.9061 139.507 37.9061Z" fill="#3F3D56"/>
<path d="M136.897 12.7408V146.322C128.776 145.823 132.907 156.523 126.362 156.86H74.4489C68.6278 156.86 63.908 152.143 63.9062 146.322V12.7408C63.908 6.91996 68.6276 2.20238 74.4484 2.20313H78.2769C77.2343 4.76704 85.6488 5.6012 86.2938 5.60202H112.881C115.649 5.59851 122.326 2.80066 122.083 2.20313H126.36C132.178 2.20412 136.895 6.92018 136.897 12.7388V12.7408Z" fill="white"/>
<path d="M60.4359 40.8469C60.0657 40.8469 59.7646 41.148 59.7646 41.5182V46.8884C59.7646 47.2586 60.0657 47.5597 60.4359 47.5597C60.8061 47.5597 61.1072 47.2586 61.1072 46.8884V41.5182C61.1072 41.148 60.8061 40.8469 60.4359 40.8469Z" fill="#3F3D56"/>
<path d="M60.4359 56.9575C60.0657 56.9575 59.7646 57.2586 59.7646 57.6288V68.0335C59.7646 68.4037 60.0657 68.7048 60.4359 68.7048C60.8061 68.7048 61.1072 68.4037 61.1072 68.0335V57.6288C61.1072 57.2586 60.8061 56.9575 60.4359 56.9575Z" fill="#3F3D56"/>
<path d="M60.4359 71.7256C60.0657 71.7256 59.7646 72.0266 59.7646 72.3969V82.8016C59.7646 83.1718 60.0657 83.4729 60.4359 83.4729C60.8061 83.4729 61.1072 83.1718 61.1072 82.8016V72.3969C61.1072 72.0266 60.8061 71.7256 60.4359 71.7256Z" fill="#3F3D56"/>
<path d="M218.766 151.022L215.581 153.203L205.648 141.955L210.35 138.735L218.766 151.022Z" fill="#FFB6B6"/>
<path d="M207.804 158.426C207.819 158.661 208.136 159.236 208.269 159.43C208.678 160.027 209.494 160.179 210.091 159.77L219.955 153.012C220.363 152.733 220.467 152.177 220.188 151.769L219.906 151.359C219.906 151.359 219.549 149.79 217.502 148.957C217.502 148.957 217.069 151.004 213.925 150.416L212.692 149.796L210.705 155.438L208.683 157.222C208.241 157.612 207.766 157.837 207.804 158.426Z" fill="#0D153D"/>
<path d="M195.282 156.814L191.421 156.814L189.584 141.921L194.31 142.509L195.282 156.814Z" fill="#FFB6B6"/>
<path d="M182.053 156.726C181.933 156.929 181.869 157.582 181.869 157.818C181.869 158.542 182.456 159.128 183.18 159.128H195.137C195.631 159.128 196.031 158.728 196.031 158.234V157.736C196.031 157.736 196.623 156.24 195.405 154.396C195.405 154.396 193.891 155.84 191.629 153.578L190.962 152.37L186.135 155.901L183.459 156.23C182.873 156.302 182.354 156.219 182.053 156.726Z" fill="#0D153D"/>
<path d="M181.744 100.216L182.034 103.728L181.456 106.521L182.509 109.465L183.797 125.033L190.509 151.873L195.635 152.952L193.174 126.142L195.083 104.028L181.744 100.216Z" fill="#0D153D"/>
<path d="M203.524 84.9692L183.922 85.2414L181.744 100.215L195.083 106.477L194.658 127.862L209.514 149.367L217.426 144.847L204.168 126.584L207.88 96.1313L203.524 84.9692Z" fill="#0D153D"/>
<path d="M189.014 49.7669L185.556 54.2052L187.189 88.2364L199.985 87.9642L202.163 58.289L199.441 50.666L198.455 48.9576L197.277 46.7456L189.724 47.2851L189.014 49.7669Z" fill="#E6E6E6"/>
<path d="M183.907 70.8123L184.598 77.7675L183.749 85.7711L182.687 87.9409L180.259 96.5731C180.259 96.5731 177.781 100.348 183.226 100.62C188.671 100.891 206.519 99.1247 206.519 99.1247C206.519 99.1247 208.744 99.0699 207.774 94.4151C206.207 91.7228 207.218 87.9291 207.218 87.9291L205.157 80.3394L205.702 73.261L209.513 54.7478C206.128 52.0876 202.337 50.1836 198.215 48.894L194.605 58.3868L189.23 49.7109L187.188 51.2083C184.434 51.9305 182.01 53.041 180.093 54.7475L183.907 70.8123Z" fill="#0D153D"/>
<path d="M119.285 54.2997H80.8617C78.2281 54.2967 76.0938 52.1624 76.0908 49.5288V33.0129C76.0938 30.3792 78.2281 28.2449 80.8617 28.2419C93.1222 24.8452 105.981 25.1635 119.285 28.2419C121.918 28.2451 124.052 30.3793 124.055 33.0129V49.5288C124.052 52.1623 121.918 54.2966 119.285 54.2997Z" fill="#F2F2F2"/>
<path d="M123.199 71.6091H76.9473C76.4745 71.6086 76.0913 71.2254 76.0908 70.7526V59.2798C76.0914 58.807 76.4745 58.4239 76.9473 58.4233H123.199C123.672 58.4239 124.055 58.807 124.055 59.2798V70.7529C124.055 71.2256 123.672 71.6088 123.199 71.6093V71.6091ZM76.9473 58.7659C76.6636 58.7662 76.4337 58.9961 76.4334 59.2798V70.7529C76.4337 71.0366 76.6636 71.2665 76.9473 71.2668H123.199C123.482 71.2665 123.712 71.0366 123.713 70.7529V59.2798C123.712 58.9961 123.482 58.7662 123.199 58.7659H76.9473Z" fill="#E6E6E6"/>
<path d="M91.2511 62.6169C90.9199 62.6239 90.6572 62.898 90.6642 63.2291C90.671 63.5504 90.9298 63.8092 91.2511 63.816H119.516C119.847 63.8287 120.125 63.5706 120.138 63.2397C120.151 62.9087 119.893 62.6301 119.562 62.6175H91.2511V62.6169Z" fill="#E6E6E6"/>
<path d="M91.2511 66.2153C90.9199 66.2223 90.6572 66.4964 90.6642 66.8275C90.671 67.1488 90.9298 67.4076 91.2511 67.4144H119.516C119.847 67.4271 120.125 67.169 120.138 66.8381C120.151 66.5071 119.893 66.2285 119.562 66.2159H91.2511V66.2153Z" fill="#E6E6E6"/>
<path d="M83.3115 67.415C84.6361 67.415 85.7099 66.3412 85.7099 65.0166C85.7099 63.692 84.6361 62.6182 83.3115 62.6182C81.9869 62.6182 80.9131 63.692 80.9131 65.0166C80.9131 66.3412 81.9869 67.415 83.3115 67.415Z" fill="#E6E6E6"/>
<path d="M123.199 127.923H76.9473C76.4745 127.922 76.0913 127.539 76.0908 127.066V115.593C76.0914 115.121 76.4745 114.737 76.9473 114.737H123.199C123.672 114.737 124.055 115.121 124.055 115.593V127.066C124.055 127.539 123.672 127.922 123.199 127.923V127.923ZM76.9473 115.079C76.6636 115.08 76.4337 115.31 76.4334 115.593V127.066C76.4337 127.35 76.6636 127.58 76.9473 127.58L117.945 127.176C118.228 127.176 122.53 125.572 122.531 125.288L123.713 115.593C123.712 115.31 123.482 115.08 123.199 115.079H76.9473Z" fill="#E6E6E6"/>
<path d="M91.251 120.641C90.9199 120.634 90.6458 120.897 90.6388 121.228C90.6318 121.559 90.8946 121.833 91.2257 121.84C91.2341 121.84 91.2426 121.84 91.251 121.84H119.516C119.847 121.852 120.125 121.594 120.138 121.264C120.151 120.933 119.892 120.654 119.561 120.641H91.251V120.641Z" fill="#E6E6E6"/>
<path d="M83.3115 123.728C84.6361 123.728 85.7099 122.655 85.7099 121.33C85.7099 120.005 84.6361 118.932 83.3115 118.932C81.9869 118.932 80.9131 120.005 80.9131 121.33C80.9131 122.655 81.9869 123.728 83.3115 123.728Z" fill="#E6E6E6"/>
<path d="M123.199 104.184H76.9473C76.4745 104.183 76.0913 103.8 76.0908 103.327V91.8545C76.0914 91.3818 76.4745 90.9986 76.9473 90.998H123.199C123.672 90.9986 124.055 91.3818 124.055 91.8545V103.328C124.055 103.8 123.672 104.183 123.199 104.184V104.184ZM76.9473 91.3406C76.6636 91.3409 76.4337 91.5708 76.4334 91.8545V103.328C76.4337 103.611 76.6636 103.841 76.9473 103.841L117.945 103.437C118.228 103.437 122.53 101.833 122.531 101.549L123.713 91.8545C123.712 91.5708 123.482 91.3409 123.199 91.3406H76.9473Z" fill="#E6E6E6"/>
<path d="M91.251 96.902C90.9199 96.895 90.6458 97.1577 90.6388 97.4889C90.6318 97.82 90.8946 98.0941 91.2257 98.1011C91.2341 98.1012 91.2426 98.1012 91.251 98.1011H119.516C119.847 98.1137 120.125 97.8557 120.138 97.5247C120.151 97.1938 119.892 96.9152 119.561 96.9025H91.251V96.902Z" fill="#E6E6E6"/>
<path d="M83.3115 99.9897C84.6361 99.9897 85.7099 98.9159 85.7099 97.5913C85.7099 96.2667 84.6361 95.1929 83.3115 95.1929C81.9869 95.1929 80.9131 96.2667 80.9131 97.5913C80.9131 98.9159 81.9869 99.9897 83.3115 99.9897Z" fill="#E6E6E6"/>
<path d="M192.827 46.4307C196.558 46.4307 199.584 43.4054 199.584 39.6735C199.584 35.9416 196.558 32.9163 192.827 32.9163C189.095 32.9163 186.069 35.9416 186.069 39.6735C186.069 43.4054 189.095 46.4307 192.827 46.4307Z" fill="#FFB6B6"/>
<path d="M197.789 45.2254C198.162 45.2889 198.598 44.3867 199.016 43.508C199.89 41.6687 200.446 40.4994 200.488 38.8466C200.524 37.4379 200.133 37.8076 199.752 34.6758C199.626 33.6428 197.862 33.6448 197.503 33.1543C196.896 32.3258 197.827 31.9841 196.317 31.4864C193.49 30.5541 192.211 32.0023 190.416 32.1271C190.371 32.1303 189.48 33.0008 188.983 33.0458C188.112 33.1246 186.856 32.989 186.292 31.6619C185.766 30.4211 185.417 34.047 185.888 34.4957C186.287 34.8767 186.977 35.833 186.994 35.9025C187.014 35.9812 185.355 34.1431 185.078 34.9006C184.879 35.4457 185.506 38.2505 186.013 38.3559C186.437 38.444 187.474 37.0468 187.24 37.6199C186.697 38.9488 189.959 39.7968 193.864 37.1292C194.002 37.0346 193.872 37.1855 194.355 38.3559C194.964 39.8321 195.101 39.912 195.091 40.3186C195.068 41.1988 194.407 41.4579 194.6 42.036C194.756 42.5042 195.368 42.8667 195.827 42.772C196.344 42.6652 196.433 42.0246 196.808 42.036C197.129 42.0458 197.51 42.5293 197.544 43.0174C197.616 44.0455 196.093 44.3283 195.827 45.7161C195.676 46.4993 197.447 45.1671 197.789 45.2254Z" fill="#0D153D"/>
<path d="M213.082 99.2381C213.111 98.4814 212.959 97.7288 212.638 97.043L213.334 89.1572L209.57 88.936L209.27 96.9606C208.915 97.6295 208.725 98.3737 208.717 99.1309C208.669 101.025 209.608 102.585 210.813 102.615C212.018 102.645 213.034 101.134 213.081 99.24L213.082 99.2381Z" fill="#FFB6B6"/>
<path d="M205.077 67.4392L208.044 76.611L208.896 95.3431L213.863 95.2417L214.248 74.7227C214.248 74.7227 211.773 59.5609 210.944 56.153C210.115 52.7452 202.472 54.0081 202.472 54.0081L205.077 67.4392Z" fill="#0D153D"/>
<path d="M81.9973 43.5269C83.4006 43.9928 84.8718 44.4645 86.3697 44.3849C87.0513 44.3487 87.7071 44.1861 88.3254 43.897C88.9596 43.6004 89.5391 43.1977 90.181 42.9167C92.5402 41.8842 94.8799 43.6481 97.08 44.3102C98.1778 44.6405 99.3321 44.7196 100.406 44.2595C101.592 43.7512 102.487 42.7812 103.464 41.9713C105.654 40.1554 108.511 39.1764 111.354 39.2504C114.472 39.3316 117.49 40.7089 119.637 42.9616C119.817 43.1505 120.103 42.864 119.923 42.6755C118.046 40.7067 115.518 39.3794 112.825 38.9772C110.127 38.5741 107.326 39.1127 104.953 40.4565C103.752 41.1365 102.79 42.0673 101.732 42.936C100.702 43.7819 99.5567 44.327 98.1989 44.1472C95.8595 43.8375 93.8473 42.0349 91.4211 42.1983C89.8715 42.3027 88.7649 43.4686 87.3068 43.8402C85.5673 44.2836 83.7491 43.6827 82.1049 43.1367C81.8572 43.0545 81.751 43.4451 81.9973 43.5269Z" fill="#3F3D56"/>
<path d="M86.3894 45.6831C87.2171 45.6831 87.8882 45.0121 87.8882 44.1843C87.8882 43.3566 87.2171 42.6855 86.3894 42.6855C85.5616 42.6855 84.8906 43.3566 84.8906 44.1843C84.8906 45.0121 85.5616 45.6831 86.3894 45.6831Z" fill="#FEC20E"/>
<path d="M99.3279 45.7495C100.156 45.7495 100.827 45.0785 100.827 44.2507C100.827 43.423 100.156 42.752 99.3279 42.752C98.5001 42.752 97.8291 43.423 97.8291 44.2507C97.8291 45.0785 98.5001 45.7495 99.3279 45.7495Z" fill="#FEC20E"/>
<path d="M112.468 40.6655C113.295 40.6655 113.966 39.9945 113.966 39.1667C113.966 38.339 113.295 37.668 112.468 37.668C111.64 37.668 110.969 38.339 110.969 39.1667C110.969 39.9945 111.64 40.6655 112.468 40.6655Z" fill="#FEC20E"/>
<path d="M25.5008 91.1642C21.0695 103.781 26.7154 113.721 25.5438 107.309C24.5646 101.95 41.2498 85.6437 46.2721 89.0062C46.1669 88.4621 42.9746 78.6509 42.6617 78.6056C43.0995 77.5031 42.4893 77.4926 42.4645 76.9277C42.3696 74.7459 42.8767 72.481 43.8645 70.1501C44.512 68.3492 44.5233 66.8018 43.8958 65.5542C43.3559 64.5288 42.4489 63.7449 41.3561 63.3592L38.065 59.3846C37.2078 58.3501 35.9434 56.1178 34.6 56.1262L27.3886 55.8686C27.1825 55.7448 24.6503 57.9223 22.1847 58.9908C19.5106 60.1507 20.0623 63.3166 20.069 63.3571L20.0752 63.3948L20.1046 63.4218L24.0352 74.991L27.5866 78.3194C27.4067 78.8411 27.4517 79.2328 27.7887 79.4575C27.305 79.8152 25.1534 90.5195 25.5008 90.8945L25.5008 91.1642Z" fill="#FEC20E"/>
<path d="M62.5556 68.2675C62.0193 68.4815 61.5422 68.8208 61.1639 69.257L55.4531 71.2146L56.4642 73.9046L62.1482 71.6292C62.7242 71.6695 63.3015 71.5713 63.8318 71.3427C65.1663 70.7889 65.9629 69.6516 65.61 68.8024C65.2572 67.9532 63.8901 67.7137 62.5556 68.2675Z" fill="#FFB6B6"/>
<path d="M32.0918 59.6346L45.1197 77.2201L60.391 73.0146L59.7271 69.0308L48.0984 71.2334L41.611 61.2599C39.4926 57.165 35.3173 56.3403 32.0918 59.6343V59.6346Z" fill="#FEC20E"/>
<path d="M125.662 148.309H119.717C118.679 148.309 117.834 147.464 117.834 146.426C116.707 143.364 116.565 140.617 117.834 138.323C117.834 137.284 118.679 136.44 119.717 136.44C121.475 135.164 123.525 135.552 125.662 136.44C126.7 136.44 127.545 137.284 127.545 138.323C126.824 140.919 126.876 143.628 127.545 146.426C127.545 147.464 126.7 148.309 125.662 148.309Z" fill="#FEC20E"/>
<path d="M125.087 140.046H120.285C120.12 140.046 119.985 139.912 119.985 139.746C119.985 139.58 120.12 139.446 120.285 139.446H125.087C125.253 139.446 125.387 139.58 125.387 139.746C125.387 139.912 125.253 140.046 125.087 140.046Z" fill="white"/>
<path d="M125.087 142.446H120.285C120.12 142.446 119.985 142.312 119.985 142.146C119.985 141.981 120.12 141.846 120.285 141.846H125.087C125.253 141.846 125.387 141.981 125.387 142.146C125.387 142.312 125.253 142.446 125.087 142.446Z" fill="white"/>
<path d="M125.087 144.847H120.285C120.12 144.847 119.985 144.712 119.985 144.547C119.985 144.381 120.12 144.247 120.285 144.247H125.087C125.253 144.247 125.387 144.381 125.387 144.547C125.387 144.712 125.253 144.847 125.087 144.847Z" fill="white"/>
<path d="M230.286 159.219H0.713867V159.673H230.286V159.219Z" fill="#E6E6E6"/>
<path d="M179.887 98.6088C180.082 100.493 181.213 101.921 182.412 101.796C183.611 101.672 184.425 100.044 184.23 98.159C184.162 97.4047 183.915 96.6776 183.509 96.0385L182.582 88.062L178.848 88.5765L180.158 96.3839C179.891 97.0926 179.798 97.8549 179.886 98.607L179.887 98.6088Z" fill="#FFB6B6"/>
<path d="M185.382 66.2799L186.93 52.6864C186.93 52.6864 179.211 52.0246 178.651 55.4867C178.091 58.9489 176.808 74.2578 176.808 74.2578L178.795 94.6839L183.755 94.3969L183.141 75.6555L185.382 66.2799Z" fill="#0D153D"/>
<path d="M36.2803 54.3716L25.8517 55.3211L25.5439 44.4823L36.9052 44.1597L36.2803 54.3716Z" fill="#0D153D"/>
<path d="M31.0061 52.9166C34.0287 52.9166 36.4791 50.4663 36.4791 47.4436C36.4791 44.421 34.0287 41.9707 31.0061 41.9707C27.9835 41.9707 25.5332 44.421 25.5332 47.4436C25.5332 50.4663 27.9835 52.9166 31.0061 52.9166Z" fill="#FFB6B6"/>
<path d="M35.409 42.111C35.3705 40.753 33.6807 40.606 32.3642 40.2708L31.1703 39.6512C29.9985 39.3529 28.7552 39.5627 27.7461 40.2291L24.5627 42.1576C23.1333 43.1015 22.9063 44.6271 22.325 46.2384L21.273 48.5971C20.7008 50.1832 21.4569 52.285 22.0353 53.8689L22.2777 54.5326L21.8987 56.7048L28.5327 56.395L29.1224 53.0416L27.99 51.7687C27.5882 51.317 27.5556 50.6464 27.9117 50.1579C29.1927 48.4007 28.9553 45.9382 28.9553 45.9382L30.5764 46.8225C31.6416 46.9678 32.5908 46.9519 33.426 46.7774C34.3446 46.5854 35.1252 46.2016 35.7703 45.6295L36.3483 47.5735C36.4972 49.993 36.0451 50.6351 33.8885 53.0018L37.6703 55.376L37.5304 54.0912C37.1977 51.0348 38.2121 48.6246 38.0699 46.137C37.9716 44.417 36.9486 42.8844 35.409 42.111Z" fill="#0D153D"/>
<path d="M36.3152 88.2594C35.7809 88.0406 35.2019 87.953 34.6268 88.0039L29.1597 85.4434L28.0176 88.0804L33.6863 90.3938C34.0725 90.823 34.5559 91.1535 35.096 91.3577C36.4405 91.8867 37.8037 91.6224 38.14 90.7665C38.4764 89.9107 37.6597 88.7884 36.3152 88.2594Z" fill="#FFB6B6"/>
<path d="M20.4067 60.8825L17.5557 82.5815L31.4599 90.1689L33.7508 86.8427L23.8577 80.3461L26.1228 68.666C27.4449 64.2492 25.0154 60.7548 20.4069 60.8823L20.4067 60.8825Z" fill="#FEC20E"/>
</g>
<defs>
<clipPath id="clip0_60_938">
<rect width="229.573" height="160" fill="white" transform="translate(0.713867)"/>
</clipPath>
</defs>
</svg>
