<svg width="221" height="160" viewBox="0 0 221 160" fill="none" xmlns="http://www.w3.org/2000/svg">
<g clip-path="url(#clip0_60_905)">
<path d="M16.5601 130.861C25.2762 130.861 32.3419 123.795 32.3419 115.079C32.3419 106.363 25.2762 99.2976 16.5601 99.2976C7.84407 99.2976 0.77832 106.363 0.77832 115.079C0.77832 123.795 7.84407 130.861 16.5601 130.861Z" fill="#E4E4E4"/>
<path opacity="0.2" d="M4.90716 104.538C3.43507 107.982 3.23537 111.837 4.34375 115.414C5.45213 118.991 7.79635 122.057 10.9575 124.065C14.1187 126.073 17.8908 126.891 21.5999 126.374C25.3089 125.857 28.7132 124.038 31.2043 121.241C30.305 123.345 28.9591 125.228 27.2598 126.76C25.5605 128.292 23.5484 129.437 21.363 130.114C19.1776 130.791 16.871 130.985 14.6032 130.682C12.3354 130.38 10.1605 129.587 8.22915 128.361C6.29785 127.134 4.65633 125.502 3.41833 123.578C2.18033 121.654 1.37545 119.484 1.05946 117.218C0.743466 114.952 0.923916 112.644 1.5883 110.455C2.25269 108.265 3.38513 106.247 4.90716 104.538Z" fill="black"/>
<path d="M16.6033 115.08H16.6464L17.427 159.823H15.7793L16.6033 115.08Z" fill="#3F3D56"/>
<path d="M194.413 113.13H48.5684V156.365H194.413V113.13Z" fill="#F0F0F0"/>
<path d="M129.993 122.066H112.987V156.365H129.993V122.066Z" fill="#CACACA"/>
<path d="M185.909 62.1133H57.0703V101.889H185.909V62.1133Z" fill="#F0F0F0"/>
<path d="M198.972 64.5635H44.0089C43.7502 64.5635 43.4974 64.4861 43.283 64.3413C43.0686 64.1965 42.9024 63.9909 42.8058 63.7509C42.7092 63.5109 42.6865 63.2475 42.7407 62.9946C42.795 62.7416 42.9236 62.5107 43.1101 62.3314L85.4615 21.6229V3.89111C85.4619 3.54723 85.5987 3.21755 85.8418 2.97439C86.085 2.73123 86.4147 2.59446 86.7585 2.59407H95.1172C95.4611 2.59445 95.7908 2.73122 96.0339 2.97438C96.2771 3.21754 96.4139 3.54723 96.4142 3.89111V11.0952L99.6131 8.02034C104.848 2.98867 111.793 0.1247 119.053 0.00397713C126.312 -0.116745 133.349 2.51473 138.748 7.36956L199.839 62.3018C200.034 62.4773 200.171 62.7078 200.233 62.9629C200.294 63.218 200.277 63.4857 200.183 63.7307C200.089 63.9757 199.923 64.1865 199.706 64.3352C199.49 64.4838 199.234 64.5634 198.972 64.5635Z" fill="#CACACA"/>
<path d="M91.0817 72.2017C92.1605 72.2017 93.2287 72.4141 94.2253 72.827C95.2219 73.2398 96.1275 73.8449 96.8903 74.6076C97.6531 75.3704 98.2582 76.276 98.671 77.2726C99.0838 78.2693 99.2963 79.3375 99.2963 80.4162V91.5131H82.8672V80.4162C82.8672 79.3375 83.0797 78.2693 83.4925 77.2726C83.9053 76.276 84.5104 75.3704 85.2732 74.6076C86.036 73.8449 86.9415 73.2398 87.9382 72.827C88.9348 72.4141 90.003 72.2017 91.0817 72.2017Z" fill="white"/>
<path d="M121.49 72.3452C123.669 72.3452 125.758 73.2107 127.298 74.7512C128.839 76.2917 129.704 78.3811 129.704 80.5598V91.6566H113.275V80.5598C113.275 78.3811 114.141 76.2917 115.681 74.7512C117.222 73.2107 119.311 72.3452 121.49 72.3452Z" fill="white"/>
<path d="M151.898 72.4897C154.077 72.4897 156.166 73.3552 157.707 74.8957C159.247 76.4363 160.113 78.5257 160.113 80.7043V91.8011H143.684V80.7043C143.684 78.5257 144.549 76.4363 146.09 74.8957C147.63 73.3552 149.72 72.4897 151.898 72.4897Z" fill="white"/>
<path d="M164.004 121.633C166.182 121.633 168.272 122.498 169.812 124.039C171.353 125.579 172.218 127.669 172.218 129.847V140.944H155.789V129.847C155.789 127.669 156.655 125.579 158.195 124.039C159.736 122.498 161.825 121.633 164.004 121.633Z" fill="white"/>
<path d="M82.7233 121.633C84.902 121.633 86.9914 122.498 88.5319 124.039C90.0724 125.579 90.9379 127.669 90.9379 129.847V140.944H74.5088V129.847C74.5088 128.769 74.7213 127.7 75.1341 126.704C75.5469 125.707 76.152 124.802 76.9148 124.039C77.6776 123.276 78.5831 122.671 79.5798 122.258C80.5764 121.845 81.6446 121.633 82.7233 121.633Z" fill="white"/>
<path d="M215.72 113.805L188.361 101.699C188.214 101.634 188.055 101.601 187.894 101.601H57.5071C57.3583 101.601 57.2108 101.63 57.0729 101.686L27.293 113.791C27.0453 113.892 26.8403 114.076 26.7131 114.311C26.5858 114.546 26.5443 114.818 26.5956 115.081C26.6469 115.343 26.7879 115.579 26.9943 115.749C27.2007 115.919 27.4597 116.012 27.7271 116.012H35.4536V155.788H34.5889V159.823H208.391V155.788H206.95V116.012H215.253C215.517 116.012 215.774 115.921 215.979 115.755C216.184 115.588 216.326 115.356 216.381 115.098C216.436 114.839 216.4 114.57 216.279 114.334C216.159 114.099 215.961 113.912 215.72 113.805ZM204.644 155.788H37.7594V116.012H204.644V155.788Z" fill="#CACACA"/>
<path d="M101.314 89.9272H80.2734V93.386H101.314V89.9272Z" fill="#CACACA"/>
<path d="M132.154 89.9272H111.113V93.386H132.154V89.9272Z" fill="#CACACA"/>
<path d="M162.995 89.9272H141.954V93.386H162.995V89.9272Z" fill="#CACACA"/>
<path d="M174.525 139.792H153.484V143.25H174.525V139.792Z" fill="#CACACA"/>
<path d="M92.9548 139.792H71.9141V143.25H92.9548V139.792Z" fill="#CACACA"/>
<path d="M249.607 160H-70.7464C-70.8401 160 -70.9299 159.963 -70.9962 159.897C-71.0624 159.83 -71.0996 159.741 -71.0996 159.647C-71.0996 159.553 -71.0624 159.463 -70.9962 159.397C-70.9299 159.331 -70.8401 159.294 -70.7464 159.294H249.607C249.7 159.294 249.79 159.331 249.857 159.397C249.923 159.463 249.96 159.553 249.96 159.647C249.96 159.741 249.923 159.83 249.857 159.897C249.79 159.963 249.7 160 249.607 160Z" fill="#3F3D56"/>
<path d="M169.03 61.5204C169.03 61.7465 169.026 61.976 169.023 62.2021C169.019 62.474 169.012 62.7425 169.001 63.0144C168.991 63.2511 168.98 63.4842 168.966 63.7173C168.924 64.4979 168.857 65.275 168.765 66.0555C168.744 66.2533 168.719 66.4476 168.691 66.6453C168.669 66.7972 168.648 66.9527 168.624 67.108C168.599 67.2811 168.574 67.4542 168.546 67.6273C168.489 67.9946 168.426 68.3619 168.355 68.7292C168.32 68.9129 168.285 69.0966 168.246 69.2802C168.172 69.644 168.09 70.0114 168.006 70.3752C167.998 70.4034 167.991 70.4352 167.984 70.4635C167.942 70.6436 167.9 70.8202 167.854 71.0003C167.839 71.0533 167.829 71.1028 167.811 71.1557C167.779 71.2899 167.744 71.4242 167.709 71.5584C167.659 71.7456 167.61 71.9292 167.557 72.1164C167.472 72.4061 167.387 72.6922 167.299 72.9818C167.288 73.0119 167.279 73.0425 167.271 73.0736C167.101 73.621 166.921 74.1615 166.723 74.6983C166.621 74.9809 166.512 75.267 166.402 75.5495C166.293 75.8321 166.179 76.1147 166.063 76.3937C165.95 76.6657 165.833 76.9376 165.717 77.206C165.689 77.2696 165.66 77.3332 165.628 77.3968C165.505 77.6758 165.378 77.9478 165.247 78.2197C165.243 78.2233 165.243 78.2303 165.24 78.2339C165.138 78.4528 165.028 78.6718 164.918 78.8873C164.918 78.8938 164.916 78.9001 164.911 78.9049C164.806 79.1169 164.696 79.3288 164.583 79.5372L164.403 79.8798L164.382 79.9186C164.156 80.3389 163.923 80.7557 163.675 81.169C163.622 81.2608 163.569 81.3526 163.516 81.4409C163.463 81.5327 163.407 81.6246 163.35 81.7129C163.315 81.7765 163.276 81.84 163.234 81.9036C163.16 82.0237 163.085 82.1473 163.008 82.2674C162.994 82.2921 162.976 82.3169 162.962 82.3416C162.828 82.55 162.693 82.7548 162.559 82.9632C162.393 83.214 162.224 83.4612 162.051 83.7085L158.215 89.8471L158.049 89.7093L158.003 89.667H157.999L157.847 89.5398L157.431 89.1866C157.304 89.3102 157.18 89.4338 157.053 89.5539C157.003 89.6033 156.95 89.6493 156.901 89.6987C156.862 89.7341 156.827 89.7693 156.788 89.8047C150.156 96.2806 141.335 100.031 132.071 100.312H132.06C125.047 100.505 118.104 98.8664 111.917 95.5583C111.779 95.4876 111.645 95.417 111.511 95.3357C110.706 94.8978 109.918 94.4351 109.145 93.9406C109.141 93.9371 109.137 93.9371 109.134 93.9335C108.237 93.2978 107.361 92.6196 106.506 91.8991C101.921 88.0339 98.2928 83.159 95.9072 77.6567C93.5216 72.1544 92.443 66.1742 92.7561 60.1852C92.7667 59.9486 92.7808 59.7155 92.7984 59.4788C92.855 58.6241 92.9421 57.7728 93.0598 56.9252C93.0916 56.6885 93.127 56.4519 93.1622 56.2188H168.669C168.818 57.2995 168.92 58.3862 168.977 59.4788C169.012 60.1606 169.03 60.8387 169.03 61.5204Z" fill="#F0F0F0"/>
<path d="M168.67 56.2188C167.31 47.1788 162.752 38.9266 155.824 32.9624C148.896 26.9983 140.058 23.718 130.916 23.718C121.775 23.718 112.936 26.9983 106.008 32.9624C99.0801 38.9266 94.5221 47.1788 93.1626 56.2188C93.1274 56.4519 93.092 56.6886 93.0602 56.9252C92.9437 57.7729 92.8566 58.6241 92.7988 59.4788H168.977C168.921 58.3875 168.818 57.3008 168.67 56.2188Z" fill="#FEC20E"/>
<path d="M133.389 95.5575H111.513V78.0576C111.916 70.0601 118.752 69.4143 125.175 69.8435C126.253 69.8434 127.322 70.0558 128.318 70.4686C129.315 70.8814 130.22 71.4864 130.983 72.2492C131.746 73.0119 132.351 73.9175 132.764 74.9141C133.177 75.9107 133.389 76.9789 133.389 78.0576V95.5575Z" fill="#FEC20E"/>
<path d="M111.511 83.1152V83.1187C111.511 83.1222 111.515 83.1222 111.518 83.1222L111.511 83.1152ZM102.713 56.2189C102.699 56.3072 102.681 56.3955 102.667 56.4838C102.681 56.3955 102.699 56.3072 102.716 56.2189H102.713ZM102.275 59.479C102.264 59.6132 102.254 59.7474 102.247 59.8816C102.254 59.7474 102.264 59.6132 102.278 59.479C102.278 59.4542 102.279 59.4294 102.282 59.4048C102.278 59.4295 102.278 59.4542 102.275 59.479ZM111.511 83.1187C111.511 83.1222 111.515 83.1222 111.518 83.1222L111.511 83.1152V83.1187ZM102.713 56.2189C102.699 56.3072 102.681 56.3955 102.667 56.4838C102.681 56.3955 102.699 56.3072 102.716 56.2189H102.713ZM102.247 59.8816C102.254 59.7474 102.264 59.6132 102.278 59.479C102.278 59.4542 102.279 59.4294 102.282 59.4048C102.278 59.4295 102.278 59.4542 102.275 59.479C102.264 59.6132 102.254 59.7474 102.247 59.8816ZM211.364 124.856C211.296 124.784 211.223 124.715 211.145 124.652L211.142 124.648L193.651 109.888L193.199 109.506L191.479 108.055L191.048 107.691L188.597 105.621L187.926 105.056L186.538 103.883L185.828 103.283L179.131 97.6352L175.292 94.3964L174.776 93.962L163.463 84.4149C163.636 84.1677 163.806 83.9205 163.972 83.6697C164.106 83.4613 164.24 83.2564 164.375 83.0481C164.389 83.0233 164.406 82.9986 164.42 82.9739C164.498 82.8538 164.572 82.7302 164.647 82.6101C164.689 82.5465 164.728 82.4829 164.763 82.4194C164.82 82.3311 164.876 82.2392 164.929 82.1474C164.982 82.0591 165.035 81.9673 165.088 81.8755C165.335 81.4622 165.568 81.0454 165.794 80.6251L165.816 80.5862L165.996 80.2436C166.109 80.0353 166.218 79.8233 166.324 79.6114C166.329 79.6066 166.331 79.6003 166.331 79.5938C166.441 79.3783 166.55 79.1593 166.653 78.9404C166.656 78.9368 166.656 78.9298 166.66 78.9262C166.79 78.6543 166.918 78.3823 167.041 78.1033C167.073 78.0397 167.101 77.9761 167.13 77.9125C167.246 77.6441 167.363 77.3722 167.476 77.1002C167.592 76.8212 167.705 76.5386 167.815 76.256C167.924 75.9735 168.034 75.6874 168.136 75.4048C168.33 74.8644 168.513 74.3228 168.684 73.7801C168.691 73.749 168.701 73.7184 168.712 73.6883C168.8 73.3987 168.885 73.1125 168.97 72.8229C169.023 72.6357 169.072 72.4521 169.122 72.2649C169.157 72.1306 169.192 71.9964 169.224 71.8622C169.242 71.8093 169.252 71.7598 169.266 71.7068C169.312 71.5267 169.355 71.3501 169.397 71.17C169.404 71.1417 169.411 71.1099 169.418 71.0817C169.503 70.7179 169.584 70.3505 169.658 69.9867C169.697 69.8031 169.733 69.6194 169.768 69.4357C169.835 69.0684 169.902 68.7011 169.959 68.3338C169.987 68.1607 170.012 67.9876 170.036 67.8145C170.061 67.6592 170.082 67.5037 170.104 67.3518C170.132 67.1541 170.156 66.9598 170.178 66.762C170.27 65.9814 170.337 65.2044 170.379 64.4238C170.393 64.1907 170.404 63.9576 170.414 63.7209C170.425 63.449 170.432 63.1805 170.435 62.9086C170.439 62.6825 170.443 62.453 170.443 62.2269C170.443 61.5452 170.425 60.8671 170.39 60.1854C170.333 59.094 170.231 58.0073 170.082 56.9253C168.817 47.6766 164.265 39.1922 157.26 33.023C150.254 26.8537 141.262 23.4116 131.928 23.3259C122.593 23.2401 113.54 26.5165 106.422 32.5561C99.3039 38.5957 94.5973 46.995 93.1622 56.2189C93.1269 56.452 93.0916 56.6887 93.0598 56.9253C92.9433 57.773 92.8562 58.6242 92.7984 59.479C92.7808 59.7156 92.7667 59.9487 92.7561 60.1854C92.443 66.1744 93.5216 72.1546 95.9072 77.6569C98.2928 83.1592 101.921 88.0341 106.506 91.8993C107.361 92.6198 108.237 93.298 109.134 93.9337C109.137 93.9372 109.141 93.9372 109.145 93.9408C109.445 94.1527 109.745 94.3611 110.049 94.5659C110.533 94.8838 111.02 95.1946 111.511 95.4913C111.55 95.5125 111.589 95.5372 111.628 95.5585C112.051 95.8128 112.479 96.0564 112.906 96.2931H112.91C114.501 97.1678 116.152 97.9279 117.851 98.5677C122.836 100.443 128.153 101.278 133.473 101.019H133.484C139.693 100.719 145.739 98.9293 151.112 95.8022C151.892 95.3501 152.662 94.8662 153.415 94.3505C153.602 94.2233 153.793 94.0926 153.976 93.962C154.202 93.803 154.428 93.637 154.655 93.471C154.658 93.471 154.658 93.4675 154.662 93.4675C154.678 93.4534 154.696 93.4404 154.715 93.4286C154.866 93.3121 155.022 93.1955 155.17 93.0825C155.209 93.0542 155.248 93.026 155.287 92.9942C155.297 92.987 155.306 92.9787 155.315 92.9695C155.403 92.9059 155.488 92.8352 155.576 92.7681C155.665 92.701 155.749 92.6304 155.838 92.5598C155.853 92.5503 155.867 92.5397 155.88 92.528C155.979 92.4467 156.078 92.369 156.177 92.2878C156.279 92.2066 156.378 92.1218 156.473 92.0405C156.572 91.9593 156.668 91.8781 156.767 91.7933C156.851 91.7226 156.94 91.6485 157.024 91.5708C157.053 91.5496 157.077 91.5249 157.106 91.5001C157.117 91.4897 157.128 91.4802 157.141 91.4719C157.258 91.373 157.371 91.2705 157.484 91.1681C157.512 91.1434 157.537 91.1187 157.565 91.0939C157.738 90.9385 157.911 90.7831 158.081 90.6207C158.119 90.5853 158.162 90.5465 158.201 90.5112C158.239 90.4758 158.275 90.4405 158.314 90.4052C158.363 90.3558 158.416 90.3098 158.465 90.2604C158.593 90.1403 158.716 90.0167 158.843 89.8931L159.26 90.2463L159.412 90.3734H159.416L159.462 90.4158L159.628 90.5536L162.093 92.6375L162.146 92.6833L162.188 92.7151L162.467 92.9518L163.025 93.4251L163.583 93.8948L163.665 93.962L166.261 96.1518L166.621 96.4556L169.125 98.5677L182.088 109.506L182.54 109.888L200.281 124.856L204.83 128.696L206.522 130.123C206.881 130.427 207.297 130.657 207.745 130.8C208.193 130.943 208.665 130.996 209.134 130.957C209.602 130.918 210.059 130.786 210.477 130.57C210.895 130.355 211.266 130.058 211.569 129.699C211.823 129.401 212.025 129.061 212.166 128.696C212.423 128.048 212.483 127.338 212.341 126.656C212.198 125.973 211.859 125.348 211.364 124.856ZM109.053 42.9809C112.596 38.7819 117.255 35.671 122.492 34.0075C127.728 32.3441 133.328 32.196 138.645 33.5804C143.962 34.9648 148.779 37.8252 152.54 41.8311C156.3 45.837 158.85 50.825 159.896 56.2189C159.942 56.4556 159.984 56.6887 160.023 56.9253C160.168 57.7695 160.274 58.6242 160.338 59.479C160.355 59.7156 160.373 59.9487 160.383 60.1854C160.415 60.7152 160.429 61.2485 160.429 61.7783C160.431 64.9921 159.899 68.1838 158.854 71.2229V71.2264C157.686 74.634 155.893 77.7939 153.567 80.5439C153.517 80.6004 153.468 80.6605 153.415 80.717C152.949 81.2679 152.458 81.7977 151.952 82.3028C151.949 82.3064 151.945 82.3134 151.942 82.317C151.769 82.49 151.592 82.6666 151.416 82.8291C151.055 83.1788 150.688 83.5108 150.314 83.8287C149.752 84.3196 149.176 84.78 148.587 85.2097C148.389 85.3545 148.191 85.4958 147.99 85.6371C147.792 85.7783 147.59 85.9126 147.389 86.0468C146.986 86.3152 146.577 86.573 146.164 86.8168C145.959 86.9403 145.747 87.0604 145.538 87.177C145.33 87.297 145.118 87.4101 144.906 87.5196C144.694 87.6326 144.482 87.7421 144.267 87.8481C143.839 88.0635 143.409 88.2648 142.971 88.452C142.752 88.5509 142.533 88.6428 142.314 88.7275C142.176 88.784 142.042 88.8406 141.904 88.89C141.85 88.9149 141.795 88.9361 141.738 88.9536C141.664 88.9854 141.59 89.0136 141.515 89.0384C141.491 89.0493 141.467 89.0587 141.441 89.0666C141.289 89.1267 141.141 89.1797 140.986 89.2327C140.763 89.3139 140.541 89.3881 140.314 89.4587C140.088 89.5329 139.866 89.6035 139.64 89.6671C139.414 89.7378 139.184 89.8013 138.958 89.8613C138.729 89.9249 138.503 89.985 138.273 90.0379C138.029 90.1015 137.786 90.1581 137.538 90.211C137.323 90.2605 137.111 90.3028 136.896 90.3417C136.694 90.3841 136.489 90.4194 136.288 90.4547C136.005 90.5042 135.723 90.5501 135.437 90.589C135.281 90.6137 135.13 90.6349 134.974 90.649C134.907 90.6596 134.843 90.6666 134.78 90.6737C134.582 90.702 134.384 90.7232 134.19 90.7408C134.137 90.7443 134.088 90.7514 134.038 90.7549C133.823 90.7762 133.604 90.7938 133.388 90.8115C132.926 90.8432 132.466 90.8644 132.004 90.875C131.771 90.8786 131.534 90.8821 131.301 90.8821C131.068 90.8821 130.835 90.8786 130.601 90.8715C130.601 90.8715 130.601 90.875 130.598 90.8715C130.594 90.875 130.594 90.875 130.591 90.8715C130.59 90.872 130.59 90.8724 130.589 90.8726C130.589 90.8729 130.588 90.873 130.587 90.873C130.587 90.873 130.586 90.8729 130.585 90.8726C130.585 90.8724 130.584 90.872 130.584 90.8715C130.572 90.875 130.56 90.875 130.549 90.8715C130.383 90.8715 130.216 90.8644 130.054 90.8538C129.934 90.8503 129.81 90.8468 129.687 90.8362C129.521 90.8291 129.355 90.8185 129.189 90.8044C129.136 90.8044 129.083 90.7974 129.03 90.7938C129.005 90.7932 128.98 90.7909 128.956 90.7868C128.786 90.7726 128.613 90.7585 128.443 90.7408C128.359 90.7338 128.27 90.7267 128.186 90.7161C127.928 90.6878 127.67 90.656 127.416 90.6208C127.126 90.5854 126.836 90.543 126.55 90.49C126.416 90.4724 126.285 90.4477 126.155 90.423C125.982 90.3947 125.809 90.3629 125.636 90.3276C125.455 90.2923 125.275 90.2569 125.095 90.2145C124.95 90.1827 124.802 90.151 124.657 90.1157C124.586 90.1015 124.516 90.0839 124.449 90.0662C124.078 89.9779 123.711 89.8826 123.347 89.7766C123.117 89.713 122.888 89.6459 122.662 89.5753C122.351 89.4799 122.043 89.3775 121.736 89.268C121.616 89.2291 121.499 89.1868 121.379 89.1408C121.259 89.102 121.143 89.0561 121.023 89.0102C120.913 88.9713 120.804 88.9289 120.698 88.8865C120.521 88.8194 120.348 88.7488 120.175 88.6782C119.818 88.5333 119.469 88.3814 119.119 88.219C118.921 88.1236 118.723 88.0318 118.529 87.9364C117.763 87.5656 117.008 87.1535 116.265 86.7002C116.081 86.5907 115.898 86.4742 115.714 86.3576C115.484 86.2164 115.262 86.068 115.039 85.9197C114.916 85.8349 114.796 85.7537 114.676 85.6689C114.453 85.5135 114.234 85.3545 114.019 85.1956C113.906 85.1143 113.793 85.0296 113.683 84.9448C113.291 84.6481 112.906 84.3373 112.528 84.0194C112.348 83.8675 112.168 83.7121 111.991 83.5532C111.917 83.4896 111.843 83.4225 111.769 83.3554C111.684 83.2777 111.599 83.2035 111.518 83.1222L111.511 83.1152C111.387 83.0057 111.264 82.8892 111.144 82.7726C110.956 82.596 110.773 82.4159 110.596 82.2323C110.413 82.0521 110.236 81.8649 110.063 81.6812C109.886 81.4976 109.717 81.3104 109.551 81.1196C109.381 80.9324 109.215 80.7417 109.053 80.5475C108.894 80.3638 108.738 80.1731 108.59 79.9859C108.23 79.5408 107.886 79.0876 107.559 78.626C107.407 78.4141 107.262 78.2022 107.121 77.9868C106.969 77.7677 106.824 77.5453 106.686 77.3227C106.541 77.1002 106.404 76.8741 106.269 76.6446C106.266 76.6367 106.261 76.6296 106.255 76.6234C105.99 76.1748 105.736 75.7227 105.499 75.2635C105.256 74.7973 105.026 74.3264 104.811 73.8507C104.701 73.6141 104.595 73.3739 104.496 73.1338C104.292 72.6498 104.101 72.166 103.924 71.675C103.836 71.4384 103.755 71.2017 103.673 70.9615C103.671 70.9457 103.666 70.9302 103.659 70.9157C103.497 70.4282 103.348 69.9373 103.218 69.4428C103.214 69.4358 103.214 69.4287 103.211 69.4217C103.144 69.1779 103.08 68.9342 103.024 68.687C102.967 68.4715 102.918 68.2561 102.872 68.0371C102.819 67.7933 102.766 67.5497 102.72 67.3024C102.695 67.1753 102.67 67.0481 102.649 66.921C102.628 66.815 102.61 66.7055 102.593 66.5996C102.575 66.4936 102.557 66.3841 102.54 66.2746C102.504 66.0592 102.473 65.8437 102.444 65.6283C102.409 65.3739 102.381 65.1196 102.352 64.8618C102.321 64.5545 102.292 64.2472 102.268 63.9364C102.25 63.728 102.239 63.5161 102.229 63.3042C102.218 63.1099 102.208 62.9157 102.204 62.7214C102.201 62.7111 102.201 62.6999 102.204 62.6896C102.204 62.6892 102.203 62.6886 102.203 62.688C102.203 62.6874 102.203 62.6868 102.203 62.6861C102.203 62.6854 102.203 62.6848 102.203 62.6842C102.203 62.6836 102.204 62.683 102.204 62.6826C102.201 62.679 102.201 62.679 102.204 62.6755C102.204 62.675 102.203 62.6745 102.203 62.6739C102.203 62.6733 102.203 62.6726 102.203 62.672C102.203 62.6713 102.203 62.6707 102.203 62.67C102.203 62.6694 102.204 62.6689 102.204 62.6684C102.201 62.5907 102.197 62.513 102.197 62.4353C102.19 62.2058 102.186 61.9762 102.186 61.7466C102.186 61.5382 102.19 61.3333 102.194 61.125C102.201 60.8353 102.211 60.5457 102.225 60.2561C102.225 60.1925 102.232 60.1325 102.236 60.0689C102.239 60.0053 102.243 59.9452 102.247 59.8816C102.254 59.7474 102.264 59.6132 102.278 59.479C102.278 59.4542 102.279 59.4294 102.282 59.4048C102.292 59.2529 102.306 59.1011 102.321 58.9492C102.349 58.6455 102.384 58.3382 102.423 58.0344C102.444 57.8826 102.462 57.7307 102.487 57.5788C102.501 57.4729 102.518 57.3634 102.536 57.2539C102.55 57.1444 102.568 57.0349 102.589 56.9254C102.614 56.7806 102.639 56.6322 102.667 56.4838C102.681 56.3955 102.699 56.3072 102.716 56.2189C102.783 55.8657 102.857 55.5126 102.939 55.1594C103.02 54.8027 103.112 54.4494 103.211 54.0962C103.306 53.7395 103.412 53.3828 103.525 53.026C103.578 52.8459 103.635 52.6693 103.698 52.4927C103.815 52.136 103.938 51.7828 104.076 51.4331C104.14 51.26 104.207 51.0834 104.281 50.9104C104.422 50.5607 104.571 50.211 104.722 49.8684C104.8 49.6954 104.878 49.5223 104.963 49.3492C105.122 49.0066 105.288 48.664 105.468 48.3285C105.641 47.9859 105.828 47.6503 106.019 47.3183C106.209 46.9863 106.407 46.6543 106.616 46.3258C106.711 46.1634 106.817 45.9974 106.926 45.8384C107.138 45.5135 107.361 45.1885 107.587 44.8706C108.043 44.2277 108.534 43.5955 109.053 42.9809ZM102.275 59.479C102.264 59.6132 102.254 59.7474 102.247 59.8816C102.254 59.7474 102.264 59.6132 102.278 59.479C102.278 59.4542 102.279 59.4294 102.282 59.4048C102.278 59.4295 102.278 59.4542 102.275 59.479ZM102.713 56.2189C102.699 56.3072 102.681 56.3955 102.667 56.4838C102.681 56.3955 102.699 56.3072 102.716 56.2189H102.713ZM111.511 83.1152V83.1187C111.511 83.1222 111.515 83.1222 111.518 83.1222L111.511 83.1152Z" fill="#3F3D56"/>
<path opacity="0.3" d="M112.529 84.0192C106.942 79.3048 103.333 72.6618 102.417 65.4093C101.502 58.1568 103.347 50.8252 107.587 44.8704C107.03 45.4311 106.492 46.0184 105.972 46.6322C103.506 49.555 101.639 52.9349 100.479 56.5791C99.3194 60.2232 98.8885 64.0601 99.2114 67.8707C99.5342 71.6814 100.604 75.3911 102.361 78.7882C104.118 82.1852 106.526 85.203 109.449 87.6693C115.352 92.6501 122.991 95.082 130.687 94.43C138.383 93.778 145.505 90.0955 150.486 84.1926C151.004 83.5781 151.493 82.9487 151.951 82.3044C146.794 87.4857 139.878 90.5382 132.574 90.8559C125.271 91.1736 118.116 88.7332 112.529 84.0192Z" fill="black"/>
</g>
<defs>
<clipPath id="clip0_60_905">
<rect width="219.2" height="160" fill="white" transform="translate(0.900391)"/>
</clipPath>
</defs>
</svg>
