<?xml version="1.0" encoding="utf-8"?>
<!-- Generator: Adobe Illustrator 26.4.1, SVG Export Plug-In . SVG Version: 6.00 Build 0)  -->
<svg version="1.1" id="Layer_1" xmlns="http://www.w3.org/2000/svg" xmlns:xlink="http://www.w3.org/1999/xlink" x="0px" y="0px"
	 width="112.9px" height="112px" viewBox="0 0 112.9 112" style="enable-background:new 0 0 112.9 112;" xml:space="preserve">
<style type="text/css">
	.st0{fill:#FFFFFF;}
	
		.st1{fill:none;stroke:#AA1E22;stroke-width:1.0743;stroke-linecap:round;stroke-linejoin:round;stroke-miterlimit:10;stroke-dasharray:5.053200e-02,2.0213;}
	.st2{fill:#AA1E22;}
</style>
<g>
	<g>
		<g>
			
				<image style="overflow:visible;opacity:0.4;" width="534" height="534" xlink:href="6C989DBC8337C69F.png"  transform="matrix(0.24 0 0 0.24 -8.1339 -8.1167)">
			</image>
			<g>
				<g>
					
						<ellipse transform="matrix(7.278439e-02 -0.9973 0.9973 7.278439e-02 -3.3972 93.2166)" class="st0" cx="48.4" cy="48.4" rx="45.3" ry="45.3"/>
					<g>
						<path class="st0" d="M52.4,98C27.2,98,6.8,77.5,6.8,52.4c0-25.2,20.5-45.6,45.6-45.6S98,27.2,98,52.4C98,77.5,77.5,98,52.4,98
							z M52.4,7.3C27.5,7.3,7.3,27.5,7.3,52.4c0,24.8,20.2,45.1,45.1,45.1s45.1-20.2,45.1-45.1C97.4,27.5,77.2,7.3,52.4,7.3z"/>
					</g>
					<g>
						<path class="st0" d="M45.6,91.2C20.5,91.2,0,70.8,0,45.6C0,20.5,20.5,0,45.6,0s45.6,20.5,45.6,45.6
							C91.2,70.8,70.8,91.2,45.6,91.2z M45.6,0.6C20.8,0.6,0.6,20.8,0.6,45.6c0,24.8,20.2,45.1,45.1,45.1
							c24.8,0,45.1-20.2,45.1-45.1C90.7,20.8,70.5,0.6,45.6,0.6z"/>
					</g>
					<g>
						<path class="st0" d="M52.4,91.2c-25.2,0-45.6-20.5-45.6-45.6C6.8,20.5,27.2,0,52.4,0S98,20.5,98,45.6
							C98,70.8,77.5,91.2,52.4,91.2z M52.4,0.6C27.5,0.6,7.3,20.8,7.3,45.6c0,24.8,20.2,45.1,45.1,45.1s45.1-20.2,45.1-45.1
							C97.4,20.8,77.2,0.6,52.4,0.6z"/>
					</g>
					<g>
						<path class="st0" d="M45.6,98C20.5,98,0,77.5,0,52.4C0,27.2,20.5,6.8,45.6,6.8s45.6,20.5,45.6,45.6C91.2,77.5,70.8,98,45.6,98
							z M45.6,7.3C20.8,7.3,0.6,27.5,0.6,52.4c0,24.8,20.2,45.1,45.1,45.1c24.8,0,45.1-20.2,45.1-45.1C90.7,27.5,70.5,7.3,45.6,7.3z
							"/>
					</g>
				</g>
			</g>
		</g>
	</g>
	<path class="st1" d="M16.8,65.6c-1.4,4.1-0.7,8.8,1.6,12.3c2.4,3.6,6.5,5.9,10.8,6.2c1.7,0.1,3.4-0.1,4.8-0.9
		c1.5-0.8,2.6-2.3,2.7-4c0-0.4,0-0.8-0.2-1.2c-0.2-0.3-0.4-0.6-0.8-0.8c-2.1-1.3-5.1,0.1-5.9,2.4c-0.8,2.3,0.2,4.9,2,6.6
		c1.8,1.7,3.4,3.5,5.7,4.2c5.1,1.6,11.9,1.2,15.8-2.3"/>
	<path class="st1" d="M84.8,39c2.3-3.6,2.8-8.3,1.3-12.4c-1.5-4-4.9-7.3-9-8.6c-1.6-0.5-3.3-0.7-4.9-0.3c-1.6,0.4-3.1,1.6-3.5,3.2
		c-0.1,0.4-0.2,0.8-0.1,1.2c0.1,0.3,0.3,0.7,0.6,0.9c1.7,1.8,5,1.1,6.3-1c1.3-2,1-4.9-0.3-6.9c-1.3-2.1-2.5-4.2-4.6-5.5
		C66,7,59.3,5.7,54.6,8.3"/>
	<path class="st2" d="M24,15.2c0,4.3-3.5,7.9-7.9,7.9c-4.3,0-7.9-3.5-7.9-7.9c0-4.3,3.5-7.9,7.9-7.9C20.4,7.3,24,10.9,24,15.2z"/>
	<circle class="st2" cx="30.4" cy="15.2" r="4.3"/>
	<path class="st2" d="M85.9,86.4c0,6.7-5.4,12.1-12.1,12.1c-6.7,0-12.1-5.4-12.1-12.1c0-6.7,5.4-12.1,12.1-12.1
		C80.5,74.3,85.9,79.7,85.9,86.4z"/>
</g>
</svg>
