<svg width="64" height="44" viewBox="0 0 64 44" fill="none" xmlns="http://www.w3.org/2000/svg">
<g clip-path="url(#clip0_1028_188)">
<path d="M47.7355 13.0762C47.7355 13.0762 38.2855 12.98 29.9988 7.97211C21.7121 2.96419 17.3859 -0.904663 9.84821 1.00406C0.677311 3.32626 0.529701 12.2508 0.966655 14.9042C1.5637 18.5593 6.13373 26.2486 16.4936 25.8777C27.3183 25.4899 25.6557 16.0153 25.6557 16.0153C25.6557 16.0153 23.3057 21.3413 16.6478 19.7212C10.0979 18.1268 10.2367 13.3796 11.2597 11.4356C14.6004 5.08369 27.1391 12.0517 33.8359 13.1489C41.9207 14.4723 47.7355 13.0762 47.7355 13.0762Z" fill="#0052A1"/>
<path d="M47.7381 13.0762C47.7381 13.0762 38.2882 12.98 30.0015 7.97211C21.7147 2.96419 17.3885 -0.904663 9.85089 1.00406C0.679986 3.32626 0.151969 12.2449 0.895893 15.1605C1.96368 19.3363 6.132 26.25 16.4919 25.8828C27.3166 25.4951 25.6539 16.0205 25.6539 16.0205C25.6539 16.0205 21.8418 23.438 13.0227 19.9863C6.74374 17.5319 7.27469 11.6566 8.28372 9.70458C12.7069 1.15315 27.1344 12.0547 33.8312 13.1497C41.9233 14.4723 47.7381 13.0762 47.7381 13.0762Z" fill="#0086CF"/>
<path d="M47.7372 13.0737C47.7372 13.0737 38.2872 12.9775 30.0005 7.96955C21.7138 2.96163 17.2334 -0.964512 9.695 0.944946C0.524098 3.26714 -0.00906005 12.2063 0.735598 15.119C1.80338 19.2948 6.16485 26.2864 16.5247 25.9148C27.3494 25.527 25.653 16.0128 25.653 16.0128C25.653 16.0128 22.1353 25.9486 11.0786 22.0011C4.72987 19.734 3.00042 12.9143 5.29241 8.73554C11.2041 -2.04115 26.7715 11.0776 33.4683 12.1748C41.5574 13.4989 47.7372 13.0737 47.7372 13.0737Z" fill="url(#paint0_linear_1028_188)"/>
<path d="M16.457 13.6738C16.457 13.6738 25.907 13.77 34.1937 18.7779C42.4804 23.7858 46.8066 27.6547 54.3443 25.746C63.5152 23.4238 63.6628 14.4992 63.2302 11.8458C62.6332 8.19069 58.0632 0.50145 47.7033 0.872325C36.8786 1.26009 38.5412 10.7347 38.5412 10.7347C38.5412 10.7347 40.8912 5.40875 47.5491 7.02885C54.099 8.62325 53.9602 13.3705 52.9372 15.3144C49.5965 21.6663 37.0387 14.8092 30.361 13.6011C22.6618 12.2101 16.457 13.6738 16.457 13.6738Z" fill="#006A7C"/>
<path d="M16.457 13.6752C16.457 13.6752 25.907 13.7714 34.1937 18.7793C42.4804 23.7872 46.8066 27.6561 54.3443 25.7473C63.5152 23.4251 64.0461 15.2886 63.2302 11.8472C62.1779 7.4136 58.0632 0.502832 47.7033 0.873708C36.8786 1.26147 38.5412 10.7361 38.5412 10.7361C38.5412 10.7361 40.657 5.70243 47.5006 5.96241C54.3046 6.22092 58.1491 11.8289 55.9371 16.955C51.5566 27.0898 39.4643 17.0108 30.3918 14.8091C22.7896 12.9642 16.457 13.6752 16.457 13.6752Z" fill="#009ABF"/>
<path d="M16.457 13.6752C16.457 13.6752 25.907 13.7714 34.1937 18.7793C42.4804 23.7872 46.8066 27.6561 54.3443 25.7473C63.5152 23.4251 64.0461 15.2886 63.2302 11.8472C62.1779 7.4136 58.0632 0.502832 47.7033 0.873708C36.8786 1.26147 38.5412 10.7361 38.5412 10.7361C38.5412 10.7361 39.6582 3.75919 49.4834 4.4018C57.6673 4.93644 62.6993 12.7373 58.6161 19.109C52.3637 28.862 42.1859 20.1695 31.0682 16.109C23.7193 13.4255 16.457 13.6752 16.457 13.6752Z" fill="url(#paint1_linear_1028_188)"/>
<path d="M6.68274 30.8408C7.47072 30.8408 7.85774 30.3928 7.85774 29.6966V27.2297C7.85774 27.1753 7.8739 27.1562 7.92237 27.1562H8.04133C8.0898 27.1562 8.10596 27.1724 8.10596 27.2297V29.6995C8.10596 30.536 7.63669 31.0758 6.68641 31.0758C5.73612 31.0758 5.26172 30.536 5.26172 29.6995V27.2326C5.26172 27.1783 5.27788 27.1592 5.33516 27.1592H5.44825C5.49672 27.1592 5.51287 27.1753 5.51287 27.2326V29.6995C5.50627 30.3928 5.88961 30.8408 6.68274 30.8408Z" fill="#1D1D1B"/>
<path d="M15.3796 27.2261V30.9179C15.3796 30.9723 15.3634 30.9914 15.315 30.9914H15.2019C15.1867 30.9927 15.1714 30.9892 15.1582 30.9815C15.1451 30.9737 15.1347 30.962 15.1284 30.948L13.2125 28.2168C13.034 27.9634 12.8886 27.6719 12.7755 27.5154H12.7645C12.7645 27.7203 12.7968 28.0662 12.7968 28.4063V30.9216C12.7968 30.9759 12.7806 30.995 12.7322 30.995H12.6242C12.5706 30.995 12.5508 30.9789 12.5508 30.9216V27.2297C12.5508 27.1754 12.5669 27.1563 12.6242 27.1563H12.7322C12.7466 27.1558 12.7609 27.159 12.7737 27.1655C12.7866 27.1721 12.7975 27.1818 12.8056 27.1938L14.668 29.8552C14.8677 30.1417 15.0352 30.4428 15.1644 30.6271H15.1754C15.1754 30.3899 15.138 30.0278 15.138 29.6555V27.2209C15.138 27.1725 15.1541 27.1563 15.2114 27.1563H15.3194C15.3634 27.1556 15.3796 27.1717 15.3796 27.2261Z" fill="#1D1D1B"/>
<path d="M20.1074 27.2297V30.76H22.0718C22.1203 30.76 22.1364 30.7761 22.1364 30.8246V30.9216C22.1364 30.9759 22.1203 30.995 22.0718 30.995H19.9289C19.8753 30.995 19.8555 30.9788 19.8555 30.9216V27.2297C19.8555 27.1753 19.8716 27.1562 19.9289 27.1562H20.042C20.0912 27.1592 20.1074 27.1753 20.1074 27.2297Z" fill="#1D1D1B"/>
<path d="M26.3195 27.1562H26.4326C26.4811 27.1562 26.4973 27.1724 26.4973 27.2297V30.9216C26.4973 30.9759 26.4811 30.995 26.4326 30.995H26.3195C26.2659 30.995 26.2461 30.9788 26.2461 30.9216V27.2297C26.2498 27.1724 26.2659 27.1562 26.3195 27.1562Z" fill="#1D1D1B"/>
<path d="M34.3843 27.2305V30.9224C34.3843 30.9767 34.3682 30.9958 34.3197 30.9958H34.2118C34.1633 30.9958 34.1471 30.9797 34.1471 30.9224V28.4445C34.1471 28.1639 34.1582 27.8614 34.1846 27.5434H34.1736C34.0384 27.8239 33.9143 28.0619 33.7689 28.3152L32.8084 30.0212C32.8024 30.0389 32.7905 30.054 32.7747 30.0639C32.7589 30.0738 32.7402 30.0779 32.7217 30.0756H32.6483C32.5998 30.0756 32.5748 30.0705 32.5565 30.0212L31.5798 28.2939C31.4395 28.0508 31.3205 27.8188 31.1913 27.5434H31.1803C31.2015 27.8621 31.2126 28.1537 31.2126 28.4445V30.9224C31.2126 30.9767 31.1964 30.9958 31.1391 30.9958H31.0422C30.9886 30.9958 30.9688 30.9797 30.9688 30.9224V27.2305C30.9688 27.1762 30.9849 27.1571 31.0422 27.1571H31.1288C31.1501 27.1543 31.1718 27.1586 31.1903 27.1694C31.2089 27.1801 31.2234 27.1967 31.2317 27.2166L32.6784 29.7701L34.1141 27.2224C34.1413 27.174 34.1574 27.1578 34.211 27.1578H34.3138C34.3711 27.16 34.3843 27.1762 34.3843 27.2305Z" fill="#1D1D1B"/>
<path d="M38.9367 27.1562H39.0498C39.0983 27.1562 39.1144 27.1724 39.1144 27.2297V30.9216C39.1144 30.9759 39.0983 30.995 39.0498 30.995H38.9367C38.8831 30.995 38.8633 30.9788 38.8633 30.9216V27.2297C38.867 27.1724 38.8831 27.1562 38.9367 27.1562Z" fill="#1D1D1B"/>
<path d="M45.9553 27.2297V27.3266C45.9553 27.3751 45.9392 27.3913 45.8819 27.3913H44.7105V30.9216C44.7105 30.9759 44.6944 30.995 44.6459 30.995H44.5328C44.4785 30.995 44.4594 30.9788 44.4594 30.9216V27.3913H43.2844C43.23 27.3913 43.2109 27.3751 43.2109 27.3266V27.2297C43.2109 27.1753 43.2271 27.1562 43.2844 27.1562H45.8753C45.9392 27.1592 45.9553 27.1753 45.9553 27.2297Z" fill="#1D1D1B"/>
<path d="M52.4064 27.229V27.3259C52.4064 27.3744 52.3902 27.3905 52.333 27.3905H50.309V28.9328H52.1009C52.1494 28.9328 52.1655 28.9489 52.1655 28.9974V29.0944C52.1655 29.148 52.1494 29.1678 52.1009 29.1678H50.309V30.76H52.4086C52.4571 30.76 52.482 30.7761 52.482 30.8246V30.9216C52.482 30.9759 52.4607 30.995 52.4086 30.995H50.132C50.0784 30.995 50.0586 30.9788 50.0586 30.9216V27.2297C50.0586 27.1753 50.0748 27.1562 50.132 27.1562H52.3352C52.3895 27.1585 52.4064 27.1746 52.4064 27.229Z" fill="#1D1D1B"/>
<path d="M59.4712 28.5798V29.5624C59.4712 30.4437 58.9101 30.9872 57.9055 30.9872H56.8039C56.7503 30.9872 56.7305 30.971 56.7305 30.9137V27.2219C56.7305 27.1675 56.7466 27.1484 56.8039 27.1484H57.9055C58.9116 27.155 59.4712 27.7 59.4712 28.5798ZM57.9113 27.3871H56.9831V30.7551H57.9113C58.7537 30.7551 59.2229 30.3145 59.2229 29.5624V28.5798C59.2229 27.83 58.7588 27.3871 57.9113 27.3871V27.3871Z" fill="#1D1D1B"/>
<path d="M7.81732 32.0312C10.2342 32.0312 11.3879 32.9669 11.9173 34.7441C11.9643 34.8998 11.9174 34.9468 11.7771 35.0093L11.4966 35.1025C11.3409 35.1334 11.2762 35.118 11.2314 34.9777C10.7636 33.4354 9.84421 32.701 7.81732 32.701C5.50991 32.701 4.34078 33.8856 4.34078 35.8502V39.7014C4.34078 41.6505 5.55691 42.8667 7.81732 42.8667C9.90663 42.8667 10.7952 42.0588 11.263 40.5122C11.3254 40.3719 11.3879 40.3403 11.5281 40.3873L11.8219 40.4968C11.9621 40.5438 11.993 40.6062 11.9467 40.7465C11.4165 42.5237 10.2944 43.5372 7.81512 43.5372C5.10233 43.5372 3.62109 42.0684 3.62109 39.686V35.8671C3.6233 33.4971 5.05754 32.0312 7.81732 32.0312Z" fill="#1D1D1B"/>
<path d="M17.7173 32.0312C20.4301 32.0312 21.8959 33.5001 21.8959 35.8825V39.6852C21.8959 42.0706 20.4271 43.5365 17.7173 43.5365C14.9736 43.5365 13.5078 42.0677 13.5078 39.6852V35.881C13.5078 33.4971 14.9729 32.0312 17.7173 32.0312ZM17.7173 32.7018C15.4407 32.7018 14.2253 33.8864 14.2253 35.8825V39.6852C14.2253 41.6806 15.4414 42.866 17.7173 42.866C19.9623 42.866 21.1784 41.6814 21.1784 39.6852V35.881C21.1776 33.8834 19.9623 32.7018 17.7173 32.7018Z" fill="#1D1D1B"/>
<path d="M32.0313 36.3656V39.2034C32.0313 41.7444 30.4098 43.316 27.5097 43.316H24.3277C24.172 43.316 24.125 43.269 24.125 43.1133V32.4527C24.125 32.297 24.172 32.25 24.3277 32.25H27.5083C30.4076 32.2493 32.0313 33.8246 32.0313 36.3656ZM27.5259 32.9198H24.8417V42.6485H27.523C29.9552 42.6485 31.3116 41.3699 31.3116 39.2026V36.3649C31.3123 34.1984 29.975 32.9198 27.5237 32.9198H27.5259Z" fill="#1D1D1B"/>
<path d="M40.9658 32.452V32.7325C40.9658 32.8728 40.9188 32.9198 40.7631 32.9198H34.9167V37.3791H40.0926C40.2329 37.3791 40.2799 37.4261 40.2799 37.5664V37.8491C40.2799 38.0048 40.2329 38.0518 40.0926 38.0518H34.9167V42.6514H40.9812C41.1215 42.6514 41.1839 42.6984 41.1839 42.8387V43.1192C41.1839 43.2749 41.1215 43.3219 40.9812 43.3219H34.4019C34.2462 43.3219 34.1992 43.2749 34.1992 43.1192V32.4527C34.1992 32.297 34.2462 32.25 34.4019 32.25H40.7631C40.9202 32.2493 40.9658 32.2963 40.9658 32.452Z" fill="#1D1D1B"/>
<path d="M50.9278 35.3676C50.9278 37.1602 49.8674 38.2361 48.1842 38.3786C48.7769 38.6283 49.1198 39.0176 49.4628 39.6572L51.2091 43.1185C51.287 43.2279 51.2561 43.3212 51.0997 43.3212H50.8059C50.5563 43.3212 50.4784 43.2903 50.416 43.1501L48.7945 39.9385C48.2804 38.9103 47.6878 38.4572 46.3776 38.4572H43.8073V43.1192C43.8073 43.2749 43.7603 43.3219 43.6201 43.3219H43.2925C43.1368 43.3219 43.0898 43.2749 43.0898 43.1192V32.4527C43.0898 32.297 43.1368 32.25 43.2925 32.25H47.7671C49.7271 32.2493 50.9278 33.3876 50.9278 35.3676ZM47.6848 32.9198H43.8029V37.7845H47.6848C49.2439 37.7845 50.1817 36.9267 50.1817 35.3676C50.1817 33.8084 49.2748 32.9198 47.6848 32.9198Z" fill="#1D1D1B"/>
<path d="M56.5701 32.0312C58.6594 32.0312 59.8439 32.795 60.6547 34.4482C60.7325 34.5884 60.6855 34.6685 60.5614 34.7133L60.2493 34.8536C60.1245 34.9006 60.0782 34.9006 59.9996 34.7603C59.2983 33.373 58.3157 32.7179 56.5693 32.7179C54.5579 32.7179 53.3888 33.5911 53.3888 35.0879C53.3888 36.9239 55.1197 37.2235 56.8807 37.4108C58.7828 37.6311 60.7626 37.9564 60.7626 40.3572C60.7626 42.3842 59.3592 43.5379 56.6501 43.5379C54.4676 43.5379 53.2044 42.6647 52.4561 40.8096C52.3937 40.6539 52.4091 40.5893 52.5655 40.5291L52.8593 40.4196C52.9995 40.3726 53.0465 40.3888 53.1244 40.5445C53.7949 42.1191 54.9016 42.852 56.6494 42.852C58.8944 42.852 60.0481 42.0441 60.0481 40.3888C60.0481 38.5528 58.4266 38.3148 56.7272 38.1121C54.7782 37.8786 52.6581 37.5511 52.6581 35.1341C52.6566 33.232 54.107 32.0312 56.5701 32.0312Z" fill="#1D1D1B"/>
</g>
<defs>
<linearGradient id="paint0_linear_1028_188" x1="0.498365" y1="12.8886" x2="47.7313" y2="13.8333" gradientUnits="userSpaceOnUse">
<stop stop-color="#F6FF00"/>
<stop offset="0.04" stop-color="#E9F90B"/>
<stop offset="0.24" stop-color="#A3D746"/>
<stop offset="0.44" stop-color="#69BB77"/>
<stop offset="0.62" stop-color="#3CA69E"/>
<stop offset="0.78" stop-color="#1B96B9"/>
<stop offset="0.91" stop-color="#078CCA"/>
<stop offset="1" stop-color="#0089D0"/>
</linearGradient>
<linearGradient id="paint1_linear_1028_188" x1="62.4004" y1="-0.585558" x2="46.7099" y2="11.6564" gradientUnits="userSpaceOnUse">
<stop stop-color="#D8E7F8"/>
<stop offset="0.18" stop-color="#A2CFEE"/>
<stop offset="0.39" stop-color="#69B7E3"/>
<stop offset="0.58" stop-color="#3CA3DB"/>
<stop offset="0.76" stop-color="#1B95D5"/>
<stop offset="0.9" stop-color="#078CD1"/>
<stop offset="1" stop-color="#0089D0"/>
</linearGradient>
<clipPath id="clip0_1028_188">
<rect width="63" height="43.0869" fill="white" transform="translate(0.5 0.453125)"/>
</clipPath>
</defs>
</svg>
